<?xml version="1.0" encoding="iso-8859-1"?>
<!-- Generator: Adobe Illustrator 23.1.0, SVG Export Plug-In . SVG Version: 6.00 Build 0)  -->
<svg version="1.1" id="&#x5716;&#x5C64;_1" xmlns="http://www.w3.org/2000/svg" xmlns:xlink="http://www.w3.org/1999/xlink" x="0px"
	 y="0px" viewBox="0 0 1192.696 1061.217" style="enable-background:new 0 0 1192.696 1061.217;" xml:space="preserve">
<g id="XMLID_4_">
	<path style="fill:#F3EDEC;" d="M1159.87,709.3c-18.699,104.594-128.364,190.164-237.935,177.515
		c-54.885-6.337-106.951-33.455-162.217-27.75c-83.773,8.647-139.252,86.312-209.572,131.914
		c-71.751,46.529-165.7,59.521-246.568,34.097C160.682,980.149,82.236,830.338,68.704,686.561
		c-4.989-53.002-2.966-107.905,17.123-158.137c47.1-117.776,201.548-186.35,323.572-143.663
		c37.67,13.178,73.147,35.467,113.566,35.92c88.897,0.996,141.421-96.75,219.202-139.752
		c71.563-39.563,165.051-28.296,231.714,15.475C973.881,296.404,1215.619,397.462,1159.87,709.3z"/>
</g>
<g id="XMLID_14_">
	<path style="fill:#F1D6CE;" d="M641.32,583.775c-77.552-18.776-128.852-102.66-136.758-182.061
		c-7.907-79.4,31.428-161.722,98.169-205.455c19.144-12.544,40.331-22.158,57.703-37.06c21.035-18.044,35.131-42.65,52.622-64.147
		c25.998-31.953,61.423-57.899,102-65.001c40.576-7.102,86.144,7.589,109.104,41.789c16.478,24.546,20.109,55.871,35.962,80.826
		c30.915,48.663,98.224,60.097,137.684,102.13c24.923,26.549,36.67,64.911,30.885,100.864
		c-5.786,35.953-28.974,68.693-60.969,86.083c0,0-46.026,42.371-117.187,26.387C846.831,444.837,847.981,633.808,641.32,583.775z"/>
</g>
<path style="fill:#A8C5CA;" d="M386.501,189.559c4.711,31.404,21.131,61.798,47.646,79.271
	c33.987,22.398,77.836,20.809,118.47,18.411c18.831-1.112,37.661-2.223,56.492-3.335c29.193-1.723,59.004-3.581,86.072-14.652
	c27.068-11.071,51.381-33.223,57.039-61.915c2.032-10.307,1.504-21.385-3.196-30.78c-8.239-16.469-26.943-24.402-44.247-30.703
	c-74.729-27.215-151.573-48.621-229.611-63.962C401.412,67.397,376.553,123.244,386.501,189.559z"/>
</svg>
