<svg id="圖層_1" data-name="圖層 1" xmlns="http://www.w3.org/2000/svg" viewBox="0 0 1565.22 823.3"><title>bg-2</title><path d="M1042.8,359.3q24.78,4.69,49.58,8.57c97,15.07,195.33,19,286.43,59.62,35.84,16,69,36.26,97.15,63.93,26.2,25.79,45.17,55.89,51.63,92.72,7.73,44-3.66,83.2-31.52,117.66-26.75,33.08-62.3,49.94-104,55.34-39.46,5.12-78.81,2.77-118.19-.71-67.72-6-134.57-18.15-201.77-27.9-46.28-6.71-92.73-12.46-139.27-17-41-4-82.2-3-123.27,1.24-37.93,3.94-75.87,7.82-113.88,10.89-27.25,2.2-54.57,1.44-81.85-1.21-85.85-8.35-167.5-31.88-245.52-68.16-49-22.79-95.06-50.44-135-87.27-33.11-30.53-63.66-63.57-93.21-97.52-25.19-28.94-48.9-59-69-91.77-14.23-23.21-26.83-47.2-32.93-74-4.89-21.49-5.19-42.68,6.28-62.53,9.17-15.85,23.36-26.34,39.11-34.71,28.47-15.13,59-24.29,90.62-30,45.83-8.3,92.06-9.69,138.41-6a675.84,675.84,0,0,1,165.29,34.19c104.88,35.92,211.41,66.8,318.51,95.34C876.68,321.46,959.55,343.56,1042.8,359.3Z" style="fill:#a8c5ca"/><path d="M460.13,423.22c-31.95-78.09-6.49-172.2,44.41-240S634.91,71.41,718.41,56.34c35.34-6.38,72.27-7.81,106.65,2.29s66,32.88,81.06,65.28c8,17.17,11.16,36.48,21,52.69,20,33.18,62.29,45.63,89.06,73.7,25.57,26.8,34.71,66.93,27.55,103.34s-29.35,68.94-58,92.76c0,0-165.67,140.39-352.13,105.58C633.58,552,506.4,536.33,460.13,423.22Z" style="fill:#c7bac7"/></svg>