<svg id="圖層_1" data-name="圖層 1" xmlns="http://www.w3.org/2000/svg" viewBox="0 0 892.06 255.12"><title>footer-bg</title><path d="M676.9,302.91c-26.51,0-53-.11-79.55.15-23.53.24-47,1.16-70.46,3.24-21,1.86-41.7,4.89-62.39,8.23-22.23,3.59-44.45,7.25-67,9.31a566.79,566.79,0,0,1-74.29,1.82c-15.65-.63-31.34-1.29-46.89-2.78-18.66-1.79-37.28-4.11-55.78-6.85a580.33,580.33,0,0,1-87.42-19.65c-17.46-5.44-36.65-1.89-53.1-9.23-26-11.58-57.41,5.07-81.93-8.65-15.17-8.49-4-43.14-16.95-54.08-6.92-5.83-13.34-12-17.36-19.73s-4.24-15.37,2.29-22.32a42.36,42.36,0,0,1,7.61-6.18c10-6.54,3.72-23.72,15.38-27.35A356.64,356.64,0,0,1,46.36,136.6a591.83,591.83,0,0,1,96.24-5.12c17.82.45,35.62,1.64,53.38,3,30.65,2.36,60.73,7.72,90.81,13,25.32,4.45,50.59,9.14,76,13.24,21.53,3.47,43.25,6.06,65.14,7.58a828.52,828.52,0,0,0,90.67.9c23.2-.93,46.39-2.22,69.59-3.28,25.28-1.16,50.56-2.55,75.86-3.27,22.39-.63,44.8,0,67.17,1.25,28.71,1.65,57.16,4.7,85.09,10.63,21.11,4.48,41.65,10.35,60.63,19.6,13.06,6.36,25,14,33.69,24.65,10.13,12.47,24.59,28.53,17.63,43.1-5.25,11-14.58,19.05-26.25,25.22-10.47,5.53-21.94,8.9-33.89,11.17-13.59,2.58-38.28,1.55-52.13,2.49-33,2.25-66.1,2.78-99.2,2.62-13.3-.06-26.59-.18-39.89-.27Z" style="fill:#a8c5ca"/></svg>