<svg id="圖層_1" data-name="圖層 1" xmlns="http://www.w3.org/2000/svg" viewBox="0 0 255.12 255.12"><title>sheep-3</title><path d="M197.07,237.14c-9.78,0-14.88-3.3-14.91-14.57s1.05-23.39-5-34.19c-3.4,9-3.62,12.91-.35,20.33,1.63,3.69,3.61,7.19.38,10.85-3.53,4-8.55,5.21-12.84,2.94-7-3.7-15.16-5.41-10.09-18.64,5.87-15.35,6.9-32.78-10-44.58a10.23,10.23,0,0,1-3.73-4.48C132.32,132,110.57,128.67,92,120.89c-4.67-2-6.22,2.1-7.79,4.93-4.73,8.55-8.75,17.5-13.71,25.9-7.13,12.07-6.35,24,2.82,33.59,7.72,8.08,8.25,18.76,13.57,27.55,2.65,4.38.37,8.52-5.53,8.75-6.73.27-14.37.78-17.31-6.76-7-18-14.77-35.57-24.73-52.16-3.09-5.16-2.59-10.38,1.57-15.17,4.44-5.11,5.27-11.15,2.6-17.89-1,11.29-9.14,20.11-8.17,32.59,1,13.11,1.79,26.71-2.1,39.66-1,3.5-.2,4.64,2.24,6.44,2.9,2.13,5.48,5.17,3.47,9-1.77,3.32-5.54,2.09-8.58,2.08-15.59-.68-16.15-4.26-16.95-15.28C12,185.2,14.46,166,15.65,147a10.94,10.94,0,0,1,3.5-7.24c14-10.85,12.41-26,11.66-40.86-1.71-34.29,26.12-56.69,60-54.16,21.25,1.59,40.89,12.81,63,8.75-1.41-6.09-6.73-4.8-10.28-5.44-6.88-1.23-12.67-4-17.28-9.12-3.27-3.65-5.79-7.85-3-12.74,2.67-4.68,7.36-5.69,12.3-4.6s9.75,2.91,14.71,4c7,1.57,13.51,1.8,20.08-2.92,9.17-6.59,19-3.86,27.54,1.69,6.69,4.36,12,6.15,20.19,2.75,7.16-3,17.35-6.71,22.59,3.88,2.65,5.34-9.51,18.84-18.3,18.13-14.67-1.2-14.86,6.67-16.08,17.47S202,86.5,209.73,97c6.82,9.31,3.16,20.78-5.11,28.86-5.9,5.78-7.56,12.23-7.75,19.91-.55,22.74-.26,45.39,3.52,67.91C202.81,228.13,217,235.14,197.07,237.14ZM31.13,133.59c7.86-3.21,7.87-9,6.37-14.34-3-10.38,2.28-20.73-1.06-31.3-1.61-5.08,3-11.76,8-13.22,13.89-4,28.53-14.26,42.47-6.55,15,8.3,31.87,5,46.53,12.13,6.16,3,11-2,14-5.63,3.14-3.84,7.85-9.55,5.84-14.43-2.29-5.53-9.06-2.07-13.91-2.48-3.87-.32-8.29-.2-11.43-2.05-9.2-5.43-19.43-4.17-29.06-6.21-23.69-5-41.39-.7-55.6,20.46C37.69,78.2,33,85,33.66,95.05,34.51,107.5,35.32,120,31.13,133.59Zm50.39-32.16c-6.46,9.71-14.43,15.91-25.2,18.76-5.79,1.53-16.9,36-13.55,41.36a195.13,195.13,0,0,1,16.86,34.63c1.87,4.91,4.86,9.14,11.09,8.58,2.55-.23,6.14.85,7.2-2.39,1.77-5.43-2.79-8.55-5.66-12-11.2-13.51-13.65-27.38-3.6-42.87,4.85-7.47,7-17,12.77-23.49C88.28,116.2,87.46,110,81.52,101.43Zm85.24,38.69c.2-6-19.93-32.41-25.73-34-3.11-.84-5.94-1.5-7.35,2.94-4.09,12.93-8.73,25.61,4,36.86,4,3.56,6.65,8.69,10.41,12.63,10.05,10.54,19.05,20.92,10.44,37-2.53,4.71,1.24,7.83,6.35,8.75,6.44,1.15,5.41-3.44,6-7.17,1-6.15,2.08-12.29,3.46-18.36,1.06-4.67,2.09-9.18-1-13.46C167.76,157.71,156.27,151.61,166.76,140.12ZM174.32,44c5.89,6,12.1,8,17.72-.65a2.49,2.49,0,0,1,4.06,0c7.58,10,17.34,2.7,25.69,2.44,7.11-.23,16.7-6.94,14.79-13.69-2.26-8-12.46-4.17-18.32-1.38-7.85,3.73-13.63,2.67-20.36-2.22-8-5.79-17.3-8.55-26.24-2.46-7.27,5-14.39,5.17-22.29,3-5.26-1.46-10.6-2.73-16-3.71-2.72-.5-5.58,0-7.17,2.8-1.67,3,.14,5.33,1.8,7.45,4.34,5.51,10.93,6.7,16.91,9.47,8.74,4,21.48-3.35,26.37,10.12C173.6,51.46,170.67,47.43,174.32,44Zm26.34,81.19c7.18-7.58,10-15.1,7.25-24.41-2.14-7.34-3.37-11.52-11.22-3.3-14.46,15.17-23,15.07-39.53,2.38-4-3.09-8-6.39-12.37-8.9-2.24-1.28-5.49-6.79-8-.34-1.68,4.31-5.36,9.57,3.26,11.63s13.91,8.29,18.15,15.65c3.12,5.43,6.31,10.82,9.69,16.09,1.6,2.51,2.46,6.74,6.21,6.22,4.69-.65,2.28-5,2.62-7.76.87-7.07,5.22-11,11.32-13.72C194.48,115.83,197.91,119.92,200.66,125.15ZM48.8,119.23c4.73-1.72,9.53-3.29,14.19-5.2,8.42-3.45,15.51-10.19,16.53-18.25.88-6.9-7.19-12.17-13.13-16.76-5.46-4.21-9.17-2.74-13.91,1.87C40.12,92.91,43.17,105.82,48.8,119.23Zm59-38.48c5.78,13.09.16,23.17-9.06,32.23-1.56,1.53-5.1,3.18-3.39,5.33,5.14,6.41,13.05,6.07,20.37,6.85,7.13.76,4.61-4.51,4.67-7.86.1-5.91,2.32-10.49,7.23-13.89,6-4.15,5.69-11.58,5.72-17,0-4.86-7.76-5.2-12.5-6.39C116.74,79,112.37,78.19,107.77,80.75Zm83.14-24.29c.92,7.41-3.88,13.91-.44,20.18,2.67,4.88.76,7.61-2.79,9.67S180,88.39,176.8,85.23c-3.37-3.32-2.56-6.12.25-10.09,3.6-5.07,2.49-12.4-3.33-13.94-3.42-.9-10.75-1.54-14,3-3.06,4.19-.27,9.29,1.61,13.36,3.85,8.33,11.27,12.94,19.88,15.1,8.3,2.09,18.09-7.3,21.07-19.58C204.36,64.29,204.07,56.89,190.91,56.46Zm-49.86,27c8.84,6.59,16.15,12.4,23.81,17.69,10.46,7.23,16.95,5.92,25.15-4.46-19-.45-29.08-8-35.47-27.41C152.49,76.59,147.43,80.07,141.05,83.47Zm-34.5,9.44c.06-4.57-.42-7.92-3.08-9.79-3.4-2.39-5.7,1.08-7.9,2.83a37.23,37.23,0,0,0-8.13,8.26c-4.2,6.38,1,11.67,3.12,17.15.94,2.43,3.24,1.14,4.76-.17C101.37,106,105.73,99.77,106.55,92.91ZM64,72.56A89.74,89.74,0,0,1,83.64,92l15.66-14C88.83,69.41,77.82,67.92,64,72.56ZM193.43,138.4c-8.71,1.4-12.8,4.4-8.35,13,3.65,7.1,3.66,14.92,4.23,22.76,1,13.79,3.22,27.49,4.94,41.22C192.31,189.91,193.58,164.39,193.43,138.4ZM36.84,136.77c-5.92,3.86-10.14,9-9.76,15.81A141.4,141.4,0,0,1,24.16,192c-.81,3.57-1.33,9.27,3.71,9.4,4.13.11,3.19-5.37,3.46-8.71C32.87,174.05,27.77,154.84,36.84,136.77Zm139.73,7.53c3.46,11.39,7.05,22.66,5.49,34.92-1.58,12.45,4.33,23.93,5.59,36C186.05,191.27,189.55,166.56,176.57,144.3ZM27.3,137c-8.59,4.14-8.87,12.39-8.75,20.52.16,11.7,1.42,23.36-2.83,34.8-1.1,2.94.19,6.9.85,10.3.3,1.57,2.08,2.25,3.79,1.75,2.21-.65.95-2.19,1-3.6C22.51,179.42,22.92,158,27.3,137ZM175.39,52.2c5.73,9.22,8.41,17.49,5.6,26.51-.47,1.52-3.31,2.58-1,4.43a5.51,5.51,0,0,0,4.27.78c2.5-.69,3-2.2,2.39-5.19-1.86-8.64.62-17.29,1.3-25.72Zm8.29,85.73c5.39-2.7,11.22-4.67,11.7-11.91.27-4.09-2.37-4.59-5.31-3.94-6,1.33-9.33,5.44-9.94,11.45C179.9,135.77,180.33,138.39,183.68,137.93Zm-27.56,71.83c1.65,6.75,5.86,9,11.09,9.58,3.51.37,7.46.09,7.58-4.78s-3.26-5.21-7.2-4.87C164,210,160.28,209.76,156.12,209.76Zm-83.05-.24c-2,.56-6.58-1.75-6,2.49.74,5.69,6.09,6.38,11,6.39,2.65,0,6.16.57,5.48-3.81C82.54,208.43,77.51,209.62,73.07,209.52Z" style="fill:#707070"/></svg>