<svg id="圖層_1" data-name="圖層 1" xmlns="http://www.w3.org/2000/svg" viewBox="0 0 255.12 255.12"><title>sheep-1</title><path d="M66.14,155.46C59.22,171.59,68.39,187,68.3,202.9c-.06,10.25,4,12.92,14.27,11.74-2.91-14-9.63-28.07-.09-42.14-2.57,7.75-2.56,15.72-2,23.73.71,9.56,3.59,17.92,12.51,23-6.27-2.07-12.46-2.39-18.74.55,7.75,8.26,15.33,7.79,18.45-.87,1.48,1.69,5,2.63,3.62,5.44-1.14,2.39-4,3-6.9,3.44-25.08,3.9-31.26.44-34.12-10.87l-.16.1c1.28-.2,3.42,4.52,3.85-1,.51-6.53-1.37-12.68-1.85-19l-.19.1c5.68,5.23,3.29,12.18,3.91,18.48.33,3.35,2.28,5.29,5.32,4.32,3.36-1.07.56-3.37.11-5.1-2.5-9.53-6.53-19-7.18-28.61-.79-11.53-3.18-23.92,4.74-34.51Z" style="fill:#707070"/><path d="M163.92,18c9.17-6.8,19.59-7.21,28.8-.34,4.85,3.61,9.26,6.26,15.54,3.85,2.07-.8,4.76-.16,7.15.05,2.19.2,4.2,1,4.59,3.55a4.33,4.33,0,0,1-2.47,4.45c-2.59,1.51-5.22,3.88-7.95,4-9.12.53-10.28,6.52-11.38,13.71C196.55,58.13,197,67.8,201,78.71c9.72,26.69,7.36,53.11-9.64,77.08l-.48-.42c13-24,17.66-48.86,7.83-77.65-2.47,35-3,36.69-13.38,46.09,11.28-15.65,13.53-32.79,8.54-51.6l-3.16,3.68c.05-1.19-.35-2.72.24-3.5,5.51-7.23,2.73-7.68-4.57-6.56-7.62,1.17-15,0-18.28-8.7l5.09,2.52c1,.9,2,2,3.56,1.1,2.62.83,5.28,4.11,8,.57,2.33-3.07-1.7-3.78-2.66-5.65-1.06-2.06-2.79-4-.6-6.37,6.31,5.43,6.32,5.43,8.58,4,7.57-4.87,8.51-9.16,3.5-17.28-1.35-2.17-1.16-3.9.38-5.64,1.36-1.53,3.17-2.26,4.47-.25,3.63,5.6,7.85,2.48,11.79.86,2.86-1.17,7.94-2.15,6.86-5.57-1.21-3.83-6.43-2.74-9.6-1.65-4.06,1.4-8,2-11-.87-9.84-9.37-21-8.51-32.64-5Z" style="fill:#707070"/><path d="M181.82,238.81a3.28,3.28,0,0,0-.89,0c-5.82,1.85-12.48,6-17.46.77s-5.66-12.55-3.58-20.05c4.5-16.26,3.67-32.85,1.94-49.42l.41-.43c4.44,2.47,3.25,6.62,2.91,10.35-.5,5.45-.33,10.78,1.63,16.06,1.89-7.27,3.24-14.56,4.4-21.89.79-5-.19-8.49-6.39-9.17-5.16-.56-9.57-3.18-11.59-8.53,1.41,1,2.79,2.06,4.25,3,3.43,2.21,7.63,5.46,11.09,3.1s-2.34-6-1.29-9.52c2.14.89,2.72,3,3.62,4.8,1.25,2.46,1.16,5.95,5.63,5.35,4.32-.59,7.32-2.35,8-6.81.47-2.88.56-5.82.82-8.73,2.83,1.44,1.94,4.09,2,6.35.06,3.79,2.26,1.23,3.57,1.31l.48.42c-15,19.89-19.88,42.36-17,66.78.73,6.15,4.29,11,7.81,15.79Zm-1.66-74.18c-3.65,1.47-7.31.68-7,5.42.78,10.37-2.69,20.14-4.67,30.09-1.13,5.7-.69,10.78,2.18,15.86C168.75,198.37,177.79,182.84,180.16,164.63Zm-15.72,43.44c-.8,6.8-3.64,12.77-3.15,19.42C171,225.22,171,225.22,164.44,208.07Zm11.21,30.68c-1-8.05-6.7-4.89-10.58-5.44-2.16-.3-2.34,1.46-1.5,2.94C166.39,241.21,170.79,238.79,175.65,238.75Z" style="fill:#707070"/><path d="M136.32,68.49c5.34,2,2.29,6,1.73,8.9A113.06,113.06,0,0,0,140,131c2.8,9.86,11.59,13.23,20.79,8.11,1.56-.86,3-2.13,5-1.69l-.16-.15c-.37,4-6.63,3-6.45,7.56-5.05,2.36-11.81,3.85-5.92,11.73-6.51-3.15-8.29,1.91-8.92,6.14-1,6.79,4.68,3.35,7.47,3.74,3.74.53,7.92-.84,10.49,3.3l-.41.43c-2.86-.56-5.71-1.53-8.59-1.6-5.89-.16-10.59.61-10.06,8.91.26,4,.42,9.62-4.77,12.27l.16.15a40.77,40.77,0,0,0,1.28-5.12c.87-7.37,4.24-14.69-4.34-20.88-4.52-3.27-3.83-9.64.56-14.28-.87,5.24-3.41,11.84,3,14.25,3.88,1.46,3-5.41,5.43-7.83,3.9-3.93,1.23-8.08-1.51-10.07-3.67-2.66-4.74,2.78-7.2,4.31-.37-5.14,6.1-7.72,3.54-14.61-6.12-16.43-7.27-33.75-4.77-51.31C135.32,79.11,138.15,74,136.32,68.49Z" style="fill:#707070"/><path d="M176.77,60.75c-1.59.93-2.54-.2-3.56-1.1-1.28-5.77-2.52-11.54-3.86-17.29-.56-2.4-1.7-5.21-4.48-4.39-2.43.72-7.42.53-5.21,5.89-3.1.11-7.57-3.22-8.19,3.17-1.07,10.95-3,21.81-2.76,32.91.25,10.11,2.94,18.89,11.06,25.44-8.49-1.47-10.33-8.46-12-15.13a66,66,0,0,1-1.72-22c-4.81,14.92-1.19,28.9,4.61,42.62-6.88-4.93-7-12.88-8.25-20-1.48-8.56-1.89-17.41,1.64-25.75,1.66-3.93.29-5.05-3.48-6.06-6.2-1.66-13.23-.46-18.6-5.11,6.45,1.05,13,1.57,19.31,3.3s8.66-.68,8.11-6.3c-.5-5.09,1.11-9.22,3.66-13.28l-.17.19c1.55-.69,5.51,2.3,4.25-2.58-.83-3.22.08-5.48,3-6.47,3.27-1.09,4,1.81,5.84,3.77C173.67,40.65,171.87,51.93,176.77,60.75Z" style="fill:#707070"/><path d="M53.94,57.64c-3.11,3.15-6.65,6-9.24,9.52C34.56,81,36.57,94.24,47.1,106.91l-3.76-.48,2.54,6.34c-5.4-1-4.42-7.33-8.44-10.25-1.47,7.32.06,13.85,2.12,20.38,4.69,14.87,9.75,29.67,6.9,45.75a16.33,16.33,0,0,0,1.07,7.89c4.67,13.12,5.72,26.88,7.65,40.49l.16-.1c-3.08-2.88-2.83-6.91-3.82-10.58-6.26-23.24-4.15-47.85-10.74-70.83-4.64-16.19-7-32.05-5.08-48.63C37.15,74.29,40.29,62.67,53.94,57.64Z" style="fill:#707070"/><path d="M138.41,189.72c-2.4,12.58-6.72,24.82-6.23,37.91.07,1.85-1.59,3.77-2.45,5.66-4.38.74-8.33-1.7-12.75-2.55,1.43,8.26,1.46,8.41,11.07,7.26,3.54-.43.26-3.5,1.37-5,3.09,1.41,4,4.58,2,6.38-3.48,3.09-8.37,1.26-12.39.68-3.57-.51-4.74-4.51-4.12-8a184.87,184.87,0,0,1,4.55-20.91c4.1-13.61,7.23-27.16,2.86-41.29l-.18.12c5.3,5.51,5.34,12.25,4.48,19.19-1.35,10.8-4.74,21.12-7.68,31.54-1.64,5.84,2.1,7.62,6.52,8.54,6.09,1.27,3.62-3.63,4.33-6.33,2.88-11,.82-23.38,8.79-33Z" style="fill:#707070"/><path d="M87.78,167.33c3.43-6.86,2-12.93-2.73-18.66-1.45-1.75-3.19-3.65-2.74-6.34,2.9-8.91-4-14.84-6.69-22C83,124.79,84.28,132.64,86,140c4.21,18.34,8.15,21.84,27.08,22.73,4.89.22,8.93,1.17,9.07,7.21l.18-.12a15.42,15.42,0,0,0-14.08-5.24c-2.59.29-5.89.55-7.83-.74C94.48,159.92,91.07,162.91,87.78,167.33Z" style="fill:#707070"/><path d="M153.09,37.73c-7-.13-13.73-1.39-19.46-5.77-1.6-1.23-3.75-2.55-3.15-5,.56-2.22,2.67-3.28,4.82-3.5A185.55,185.55,0,0,0,163.92,18l-.13-.16c-6.12,4-12.19,7.45-20.17,6.59-3.3-.35-9.42-1-9.83,3.47-.33,3.57,5.23,5,8.89,6.23,3.46,1.14,7.82-.19,10.24,3.78Z" style="fill:#707070"/><path d="M122.45,54.23c-11.26-.82-22.1-4.61-33.57-4.24-8.38.27-16.68.46-24.66,3.35,3.68-5.87,9.93-4.62,15.25-5C94.15,47.26,108.74,47.82,122.45,54.23Z" style="fill:#707070"/><path d="M66.14,155.46l-2.25-3.77c.48-4.43,5-9.73-2.4-12.42-8.86,18.8-9.1,38.15-4.5,57.84l.19-.1c-8.16-15.91-6.44-32.17-1.27-48.35,2.31-7.23,3.94-14.09-.83-20.88,1.54-.25,2.6,3.54,4.11.92a6.24,6.24,0,0,0-.58-7.4c-3.52-4.6-9.43-7.31-10.78-13.59,1.33,1.12,2.76,2.13,4,3.37,4.81,4.93,8.91,11,17.2,10-3.53.87-6.2,1.7-3.39,6.44,4.24,7.16,2.76,15.61,4.18,23.44C70.2,153.2,69.9,156.06,66.14,155.46Z" style="fill:#707070"/><path d="M98.65,82.3c-.27-5.52,4.87-7.12,7.62-10.44,2.12-2.56,4.88-5.07,3.34-8.67s-5.21-3.68-8.54-3.77c-5.71-.16-11.37-.05-17,1.54C65.83,66.14,59.9,80.74,67.15,103.07,56.61,91.92,61.31,69.66,76,61.76c9.42-5.08,19.69-5.15,29.85-3.71,6.73,1,8.79,6.43,4.62,12C107.07,74.52,102.62,78.24,98.65,82.3Z" style="fill:#707070"/><path d="M125.05,73.93c-14.44,20.09-12.84,41.55-5.43,63.51-.93-.62-2.41-1-2.7-1.87-6.52-18.5-7.62-36.94,1.49-55C119.81,77.81,121,74.3,125.05,73.93Z" style="fill:#707070"/><path d="M98.77,140.19c-11.62-13-13.27-37.84-3.63-54.54-.41,7.17-3.8,13.66-4.16,21C90.39,118.74,93.87,129.55,98.77,140.19Z" style="fill:#707070"/><path d="M155.58,122.81c3.75-.23,4.9,3.09,6.38,5.3,3.49,5.24,7.69,6.35,13.17,3.66-4.55,3.9-3.37,6.66,1.61,8.95,2.29,1.05,5,1.63,6.27,4.27-6.92-.09-11-6.63-17.44-7.75l.16.15C164.16,131.27,158,128.38,155.58,122.81Z" style="fill:#707070"/></svg>