<svg id="圖層_1" data-name="圖層 1" xmlns="http://www.w3.org/2000/svg" viewBox="0 0 196.48 243.67"><title>sheep-4</title><path d="M192.77,157.33c7.36,17.13-2.38,33.52-2.29,50.38.06,10.89-4.28,13.73-15.15,12.47,3.08-14.91,10.22-29.81.09-44.75,2.73,8.23,2.72,16.69,2.08,25.21-.76,10.14-3.81,19-13.28,24.43,6.66-2.2,13.23-2.54,19.9.59-8.23,8.77-16.28,8.27-19.6-.93-1.57,1.79-5.27,2.79-3.84,5.78,1.21,2.54,4.29,3.18,7.32,3.65,26.64,4.15,33.21.47,36.24-11.54l.17.11c-1.36-.22-3.63,4.79-4.09-1.06-.54-6.93,1.46-13.47,2-20.21l.2.11c-6,5.55-3.49,12.93-4.15,19.62-.35,3.56-2.42,5.62-5.66,4.59-3.56-1.13-.58-3.58-.1-5.41,2.64-10.13,6.92-20.14,7.62-30.39.83-12.25,3.37-25.4-5-36.65Z" transform="translate(-29.32 -5.72)" style="fill:#707070"/><path d="M88.93,11.35C79.19,4.13,68.12,3.7,58.34,11c-5.15,3.83-9.83,6.65-16.5,4.09-2.21-.85-5.06-.17-7.6.06-2.33.21-4.46,1.09-4.87,3.76C29,21,30.26,22.62,32,23.63c2.75,1.6,5.55,4.12,8.44,4.29,9.69.56,10.92,6.92,12.09,14.57,1.76,11.47,1.23,21.74-3,33.33-10.33,28.35-7.82,56.41,10.23,81.86l.52-.45C46.47,131.74,41.52,105.34,52,74.76c2.62,37.12,3.18,39,14.21,49-12-16.62-14.37-34.83-9.07-54.81l3.36,3.91c-.06-1.26.37-2.89-.26-3.71-5.85-7.68-2.9-8.15,4.85-7,8.1,1.25,15.91,0,19.42-9.24l-5.41,2.67c-1.08,1-2.09,2.16-3.78,1.17-2.79.88-5.61,4.37-8.46.61-2.47-3.26,1.82-4,2.84-6,1.12-2.19,3-4.25.63-6.77-6.7,5.77-6.71,5.77-9.11,4.22-8-5.17-9-9.72-3.72-18.35,1.43-2.3,1.23-4.14-.41-6-1.44-1.63-3.36-2.4-4.74-.27-3.86,6-8.34,2.63-12.53.92-3-1.25-8.42-2.29-7.28-5.92,1.29-4.07,6.83-2.91,10.2-1.75,4.31,1.48,8.52,2.1,11.7-.92,10.45-10,22.28-9,34.67-5.34Z" transform="translate(-29.32 -5.72)" style="fill:#707070"/><path d="M69.51,245.38c3.74-5.11,7.52-10.24,8.3-16.77,3.07-25.94-2.15-49.8-18.05-70.93l.52-.45c1.39-.07,3.72,2.64,3.78-1.38,0-2.41-.9-5.22,2.1-6.75.27,3.09.37,6.22.86,9.27.77,4.74,4,6.61,8.54,7.23,4.75.65,4.66-3.06,6-5.68,1-1.92,1.58-4.15,3.85-5.1,1.11,3.73-5,7.64-1.37,10.12s8.13-.95,11.78-3.29c1.55-1,3-2.12,4.51-3.18-2.14,5.68-6.83,8.46-12.31,9.06-6.58.72-7.62,4.45-6.78,9.73,1.23,7.79,2.66,15.54,4.66,23.26,2.09-5.61,2.28-11.27,1.74-17.06-.36-4-1.63-8.37,3.09-11l.44.45c-1.84,17.6-2.72,35.22,2.06,52.49,2.21,8,1.47,15.78-3.81,21.29s-12.36,1.15-18.54-.82a3.74,3.74,0,0,0-1,0Zm12.2-23.76c3.06-5.39,3.52-10.78,2.32-16.84-2.1-10.56-5.79-20.94-5-31.95.38-5-3.51-4.19-7.39-5.76C74.2,186.41,83.8,202.91,81.71,221.62Zm10,12.21c.52-7.06-2.49-13.4-3.35-20.63C81.44,231.42,81.44,231.42,91.72,233.83Zm-2.42,9.3c.9-1.57.7-3.44-1.6-3.11-4.12.57-10.22-2.78-11.23,5.77C81.63,245.83,86.31,248.4,89.3,243.13Z" transform="translate(-29.32 -5.72)" style="fill:#707070"/><path d="M118.23,65c-5.66,2.13-2.42,6.42-1.82,9.46a120.1,120.1,0,0,1-2,56.9c-3,10.47-12.31,14.05-22.09,8.62-1.65-.92-3.15-2.27-5.27-1.8l.16-.16c.4,4.29,7,3.24,6.86,8,5.35,2.51,12.54,4.09,6.28,12.46,6.92-3.34,8.8,2,9.48,6.52,1.08,7.21-5,3.56-7.94,4-4,.56-8.41-.89-11.14,3.51l.44.45c3-.6,6.06-1.62,9.12-1.7,6.25-.17,11.24.65,10.68,9.47-.27,4.28-.45,10.22,5.07,13l-.17.15a43.55,43.55,0,0,1-1.36-5.43c-.93-7.83-4.51-15.6,4.61-22.18,4.8-3.47,4.07-10.23-.59-15.17.92,5.57,3.62,12.58-3.2,15.15-4.13,1.54-3.22-5.76-5.76-8.32-4.15-4.18-1.32-8.59,1.59-10.7,3.9-2.83,5,3,7.65,4.58.4-5.46-6.48-8.2-3.76-15.52,6.51-17.45,7.72-35.85,5.06-54.49C119.3,76.24,116.3,70.83,118.23,65Z" transform="translate(-29.32 -5.72)" style="fill:#707070"/><path d="M75.28,56.74c1.69,1,2.7-.21,3.78-1.17,1.36-6.12,2.68-12.25,4.1-18.36.59-2.54,1.81-5.53,4.76-4.65,2.58.76,7.88.55,5.53,6.24,3.29.13,8-3.42,8.7,3.37,1.14,11.64,3.21,23.17,2.93,35-.26,10.73-3.12,20.06-11.74,27,9-1.56,11-9,12.69-16.08a70.17,70.17,0,0,0,1.84-23.31c5.1,15.85,1.26,30.7-4.9,45.27,7.31-5.24,7.46-13.68,8.76-21.23,1.57-9.09,2-18.49-1.74-27.35-1.77-4.18-.31-5.36,3.69-6.43,6.59-1.77,14-.5,19.76-5.44-6.85,1.12-13.86,1.68-20.51,3.52s-9.2-.73-8.62-6.7c.53-5.4-1.17-9.79-3.88-14.1l.18.2C99,31.77,94.76,35,96.1,29.76c.88-3.42-.09-5.82-3.22-6.87-3.48-1.16-4.22,1.92-6.21,4C78.57,35.4,80.48,47.38,75.28,56.74Z" transform="translate(-29.32 -5.72)" style="fill:#707070"/><path d="M205.73,53.44c3.3,3.35,7.06,6.36,9.82,10.11,10.76,14.66,8.63,28.77-2.56,42.22l4-.51-2.7,6.73c5.74-1.08,4.7-7.78,9-10.89,1.56,7.78-.06,14.72-2.24,21.65-5,15.8-10.36,31.52-7.34,48.59a17.25,17.25,0,0,1-1.13,8.38c-5,13.93-6.08,28.55-8.13,43l-.17-.11c3.28-3.06,3-7.35,4.06-11.24,6.65-24.69,4.41-50.82,11.41-75.22,4.93-17.2,7.4-34,5.39-51.65C223.57,71.12,220.23,58.78,205.73,53.44Z" transform="translate(-29.32 -5.72)" style="fill:#707070"/><path d="M116,193.72c2.55,13.35,7.14,26.36,6.62,40.26-.08,2,1.69,4,2.6,6,4.65.78,8.84-1.81,13.54-2.71-1.52,8.78-1.55,8.93-11.76,7.71-3.76-.45-.27-3.71-1.46-5.33-3.27,1.5-4.28,4.87-2.11,6.78,3.7,3.28,8.9,1.34,13.17.72,3.78-.54,5-4.79,4.37-8.48a199.14,199.14,0,0,0-4.83-22.21c-4.35-14.45-7.68-28.83-3-43.85l.19.13c-5.63,5.85-5.68,13-4.76,20.38,1.43,11.48,5,22.43,8.16,33.5,1.74,6.2-2.24,8.09-6.92,9.07-6.48,1.35-3.86-3.86-4.6-6.72-3.06-11.72-.87-24.83-9.34-35.11Z" transform="translate(-29.32 -5.72)" style="fill:#707070"/><path d="M169.8,169.94c-3.65-7.28-2.18-13.73,2.89-19.82,1.54-1.85,3.38-3.88,2.91-6.74-3.08-9.45,4.22-15.76,7.1-23.4-7.86,4.78-9.19,13.12-11,21-4.48,19.48-8.66,23.2-28.77,24.14-5.19.24-9.48,1.25-9.63,7.66l-.19-.13c4-4.48,8.92-6.23,14.95-5.56,2.76.31,6.26.59,8.31-.78C162.68,162.07,166.29,165.25,169.8,169.94Z" transform="translate(-29.32 -5.72)" style="fill:#707070"/><path d="M100.43,32.3c7.45-.14,14.58-1.48,20.66-6.14,1.7-1.3,4-2.7,3.35-5.27-.59-2.36-2.84-3.48-5.11-3.72a196,196,0,0,1-30.4-5.82l.14-.17c6.49,4.26,13,7.91,21.42,7,3.5-.37,10-1,10.44,3.69.35,3.79-5.56,5.34-9.45,6.62-3.67,1.21-8.3-.21-10.87,4Z" transform="translate(-29.32 -5.72)" style="fill:#707070"/><path d="M133,49.82c11.95-.87,23.47-4.9,35.65-4.5,8.9.29,17.71.49,26.19,3.55-3.9-6.23-10.54-4.9-16.19-5.31C163,42.42,147.53,43,133,49.82Z" transform="translate(-29.32 -5.72)" style="fill:#707070"/><path d="M192.77,157.33l2.39-4c-.51-4.7-5.25-10.34,2.55-13.19,9.42,20,9.67,40.51,4.78,61.43l-.2-.11c8.66-16.9,6.84-34.16,1.35-51.35-2.45-7.68-4.19-15,.88-22.17-1.64-.27-2.76,3.75-4.37,1a6.62,6.62,0,0,1,.62-7.86c3.74-4.88,10-7.76,11.45-14.43A53.37,53.37,0,0,0,208,110.2c-5.12,5.24-9.47,11.74-18.27,10.65,3.75.92,6.58,1.81,3.6,6.84-4.51,7.6-2.93,16.58-4.45,24.89C188.46,154.93,188.78,158,192.77,157.33Z" transform="translate(-29.32 -5.72)" style="fill:#707070"/><path d="M158.25,79.64c.29-5.87-5.18-7.57-8.1-11.09-2.25-2.73-5.18-5.39-3.54-9.21s5.53-3.91,9.07-4c6.06-.16,12.07,0,18,1.64,19.39,5.5,25.69,21,18,44.72,11.2-11.84,6.2-35.48-9.39-43.87-10-5.4-20.91-5.48-31.69-3.94-7.15,1-9.34,6.83-4.92,12.7C149.31,71.37,154,75.32,158.25,79.64Z" transform="translate(-29.32 -5.72)" style="fill:#707070"/><path d="M130.21,70.74c15.33,21.34,13.63,44.13,5.76,67.45,1-.65,2.56-1.09,2.87-2,6.92-19.65,8.1-39.23-1.58-58.4C135.77,74.87,134.5,71.14,130.21,70.74Z" transform="translate(-29.32 -5.72)" style="fill:#707070"/><path d="M158.11,141.12c12.35-13.86,14.1-40.19,3.87-57.93.43,7.62,4,14.51,4.41,22.31C167,118.33,163.32,129.82,158.11,141.12Z" transform="translate(-29.32 -5.72)" style="fill:#707070"/><path d="M97.79,122.65c-4-.24-5.21,3.28-6.78,5.63-3.71,5.57-8.17,6.74-14,3.89,4.83,4.14,3.58,7.07-1.71,9.5-2.43,1.12-5.32,1.74-6.66,4.54,7.35-.1,11.66-7,18.53-8.23l-.17.16C88.67,131.64,95.27,128.57,97.79,122.65Z" transform="translate(-29.32 -5.72)" style="fill:#707070"/></svg>