<svg id="圖層_1" data-name="圖層 1" xmlns="http://www.w3.org/2000/svg" viewBox="0 0 255.12 255.12"><title>item_2</title><path d="M244.38,111.77c11.69,14.66,14.13,34.82,5.55,51.5l-.17.34c-5.95,11.37-15.24,20.66-25.25,28.69-29.92,24-69.6,38.16-107.13,30.25S47.08,181,47.45,142.63c.2-21,9.79-41.08,23-57.46,0,0,31.12-43.08,98.37-21.73C210.48,76.68,233.16,97.71,244.38,111.77Z" style="fill:#f1d6ce"/><path d="M54.58,138c-4.27-1-4.75-5-5.18-8-1.73-12.31-11.88-18.57-18.79-27.13-.54-.66-2.23-.48-3.39-.53C18,101.93,13.4,95.11,16.78,86.47,18,83.32,20,80.53,19.64,76.82c-.54-6.39-3.16-10.61-10-11.4a32.44,32.44,0,0,1-6.36-1.48A4.29,4.29,0,0,1-.06,59.65c0-2.3,1.77-3.32,3.54-4.24a1.57,1.57,0,0,1,.69-.23c11.4.64,21.28-5.06,31.94-7.4,6.79-1.5,14.23-1.45,19.66,4.81,1.93,2.22,4.62.79,6.95,1,7.42.68,10.55,4.79,7.24,11.28-2,3.85-.19,4,2.2,5.6,9.42,6.23,19.07,7.07,30,4,11.7-3.31,24.08-2.29,36.15-3,13.14-.8,26.35-.4,39.52-.39a47.78,47.78,0,0,1,29.58,10.3c-2.74.75-4.51-1.41-6.67-2.3-6.55-2.7-13-6.46-20.2-6-15.15.94-30.28.29-45.41.37-3.9,0-7.79.69-11.68,1.07-5.62.55-2.71,4.61-2.79,7.21-.13,4,2.79,2.35,4.65,2,3.34-.71,6.62-1.7,9.93-2.57a54.62,54.62,0,0,1,23.28-.83c12,2.07,17.12,9.78,14.66,21.64-1.3,6.25-3.82,12.08-6.42,17.89-1.78,4-3.62,8.07-3.18,12.65.76,8.05,3.32,9.34,9.85,4.85,3.83-2.63,7.44-5.58,11.31-8.13,5.49-3.63,11.58-9.48,17.62-7.68,7,2.11,8.6-11,16.66-4,2,1.75,5.86-4.76,5.82-9.16-.06-6.14-2.87-11.37-6.72-15.89-3.39-4-7.27-7.55-10.94-11.3,11.47,5.7,18.7,14.61,19.41,27.62.44,8-3.62,11.23-11.54,9.86a3.57,3.57,0,0,0-4.39,4.1c2.24,8.22.61,17.66,7.36,24.49l-.7.69c-8.89-4.62-4.77-14.86-10-21.32,1.32,11.94,1.37,24,6.25,35.37l-.75.64c-4.9-4.36-4.41-10.51-5.37-16.18-.74-4.32-.6-8.88-3.81-12.62.49,8-9.51,15.64-.3,23.7l-.71.64c-.41-.25-.83-.48-1.23-.73-1.71-1-2.54-4.27-5-3-1.84.91-1,3.46-1,5.34.12,3.51-.33,6.77-3.76,8.76l-.68-.6c2.25-6.74,4.23-13.43,2-20.67-1.83-5.83,2.89-16.65,8.3-18.91,2.32-1,5.73-1.65,4.72-4.22-1.29-3.27-4.63-1-6.95-.19-9,3-15.73,9.7-23.7,14.32-6.18,3.58-7.16,6.75-2.77,12l-.71.62c-3.58-6.27-8-6-14.22-3.23-12.63,5.63-26.14,6.89-39.28,2.4-5.23-1.8-6,2.77-9.13,3.49,2.14-4.11,1.78-6.88-3-9.22s-8.35-6.69-11.49-11.12c-8.43-11.9-11.2-25-8-39.56-20.67,6.69-26.81,22.37-16.32,40.24a53.37,53.37,0,0,0,12.29,14.44C93.29,157,100.33,181.57,96.13,195c-.53,1.68-2.83,3.65-.77,5.25s5.77,2.63,7.58,1.1c2.74-2.3,7.16-4.39,4.92-9.85-3.1-7.55-3.81-15.68-3.87-23.73,0-5.34-.86-11.42,5.41-14.62-5.92,11.56-3.45,23.28-.43,34.91,1.25,4.81,3.21,9.39-2.33,12.89a4.86,4.86,0,0,0-1.43,2.52c-2.07,6.42-8,9.4-14.44,7.36-3.39-1.08-3.68-3.66-2-5.66,9.42-11.53,6.7-24.11,3.58-37.36-2.47,3.22-4.07,6.94-3.52,10.06,1.58,8.84-2.86,16.06-5.1,23.88-.78,2.72-2.86,3.87-5.5,4-3.46.22-8.24,1.26-11.16-1.17-2.25-1.88-.9-3.63.27-5.59,3.4-5.74,5.38-11.89,8.34-17.67,2.65-5.17,3.09-10.73,2.17-16.43-1.09-6.79-1.92-13.1-11.22-14.2A12.39,12.39,0,0,1,55.94,141c2.42,2,4.64,4.34,7.29,6,4.89,3,10,5.73,15.88,1.19-5.13-5.35-9.63-10.78-12.64-17.28C59.66,116.2,63.54,101.48,78.2,95c10.86-4.81,17.25-15.39,28.74-18.67-17.76,1.36-17.76,1.36-37.14-4.87C61.93,68.93,51,76,50.31,84.37c-.5,6-3.23,10.08-8.92,12.14-1.37.5-2.71,1.09-4.06,1.65-5.06,2.12-5.78,4.8-1.13,8.27a40.09,40.09,0,0,1,15.3,23.42A71.1,71.1,0,0,0,54.58,138Zm78.32,12.44c10.28.05,19.16-2.49,27.74-6.14,2-.86,4.94-1.35,3-5.07-3.54-6.67-1.89-13.21,1-19.68,2.7-6,5.33-12,6.55-18.57,1.91-10.26-1.32-15.64-11.55-18.35-10-2.65-19.91-1.44-29.48,2-3.61,1.3-8.11-.08-10.92,3.16-9,10.29-13.51,21.88-9.74,35.7C110.71,128,112,132.47,113,137c2.58,11.05,3.42,11.87,14.86,13.22C129.81,150.43,131.78,150.42,132.9,150.48Zm-114-63.15c5.87-.51,7.57-4.44,9.48-7.48,3.47-5.5,9.34-7.68,14.17-11.26,1.56-1.16,4.65-1.88,5.39,1,.54,2.16-1.34,4-3.74,4.69a19.41,19.41,0,0,1-2.18.19c-7.71,1.08-10.35,8-5.18,14.87,3.26-5.73,9.39-8.9,12.4-14.38S56.12,66.79,62,67c4.67.19,7.12-2.06,7.15-6.33,0-4.74-4.08-4.67-7.43-5.23-2.28-.38-4.43,1.46-7-.48-10.64-8.17-21.36-8-31.38.38a6.05,6.05,0,0,1-5.34,1.38,34.15,34.15,0,0,0-8-.53c-3,.25-7.58-.32-7.73,3.61-.13,3.39,4.36,3.16,7.07,3.7,9.94,2,14.33,9,11.55,18.71C20.59,83.62,19.92,84.91,18.93,87.33Zm92.44,57.07c1.5-3.24-.36-6.15-1-9.13-1.15-5.73-2.91-11.35-3.78-17.1-1.45-9.57.29-18.36,7.13-25.85,1.28-1.39,5.43-6.83.3-5.74A198.84,198.84,0,0,0,90,93.1c-.79.27-1.14,2-1.51,3.18C83,112.78,94.79,137.62,111.37,144.4ZM78.68,156.08c.46,5.64,1.66,11.09,1.29,16.72-.38,5.79-3.32,10.64-5.14,15.9-2.07,6,3.11,4.19,6.9,6.36-2.45-9.87-.47-18,2.07-26.19C85.29,164,83.18,159.4,78.68,156.08Zm3.41-1.26c5,7.88,4.23,15.09,1.33,22.73-1.72,4.52-2.07,9.73.62,14.32a2.68,2.68,0,0,0,2.5-2.75,101.84,101.84,0,0,1,3-24.37C90.62,160.15,88.26,156.48,82.09,154.82ZM92.18,88.75c6,.49,10.51,0,14.81-2,2-1,3.05-2.24,1.65-4.59-1.07-1.79-2-3.28-4.4-2C100.22,82.26,96,84.08,92.18,88.75ZM48.1,80.14A43.37,43.37,0,0,0,35.25,95.92C46.46,93.29,48.11,91.21,48.1,80.14ZM32,79.5c-2.26,1.87-5.83,5.29-4.61,6.6,5.69,6.15-.93,7.31-4.3,10.42C40.23,97,29.09,85,32,79.5Zm169.68,51.06c-4.9,5.09-9,10.45-5.76,18.67C201.15,143.51,199.27,136.35,201.71,130.56Zm-106,78.84c2.17-1,6.77.71,6.85-2.91.08-3.21-4.27-2.93-7.09-3.19s-5.23.91-5.2,3.74C90.33,210.33,93.5,208.8,95.74,209.4Zm-15-10.74c-4.61-.37-7.95-3.77-11.58-.17-1.07,1.06-1.73,2.73.12,3.64C73.28,204.12,76.76,203,80.71,198.66Z" style="fill:#707070"/><path d="M218,147.18c3.65,4.18,3.72,9.38,3.93,14.46.35,8.08.8,16.09,3.95,23.71.79,1.93,2,4.31-.2,6.07-3.63,2.94-5.1,4.41-3.63,5.87,1.46,2.94.63,3-1.06,4.44-4.45,3.84-9.81,1.79-14.69,1.16-3.21-.42-3.11-3.54-1.55-5.82,8.87-13,7.11-25.42-1.56-37.63a5.89,5.89,0,0,1-.55-1.34l.71-.64c7.52,6.85,9.32,15.74,8.73,26.4,3.59-7.73,3-14.49.75-21.3l.75-.64c5.54,8.86,2.81,17.79-.24,26.45-1.58,4.48-.05,5.72,3.85,6.13,4.33.46,8.08-4.81,6.38-9.42a57.73,57.73,0,0,1-3.26-18.57,62.78,62.78,0,0,0-3-18.64ZM213,202c2.43-.59,6.51,1.12,6.44-2.84-.08-4.64-5.34-2.69-8-4.23-2.45-1.4-5.05,1.87-5.05,3.85C206.39,203.4,210.76,200.81,213,202Z" style="fill:#707070"/><path d="M191.63,168.44c-8.11,8.2-8.18,19.84-12.64,29.61-1.18,2.58-1.49,5.61-5.94,4.26-2.36-.71-3.08,1.12-2.82,4.05.36,4.11-3.36,4.86-6.67,4.71-3.91-.18-8.54,1.49-11.08-3.09-.66-1.19.16-2.8,1.93-3.21,1.44,3.93,9.87,6.44,12.6,3.65,1.82-1.85.44-3-1.29-3.68-3.86-1.5-7.75-2.22-11.55.26,5.36-12.13,15.5-21.4,19.23-34.81,2.07-7.42,3.18-13.25-1.61-19.42l.71-.62c6,5.14,7,11.06,3.5,18.2-4.92,10.1-6.27,22.16-16.39,29.39-.41.29-.28,1.34-.4,2,13.75,3.7,19.59.39,21.34-12.59,1-7.66,4.19-14.37,10.4-19.34Z" style="fill:#707070"/></svg>