<svg id="圖層_1" data-name="圖層 1" xmlns="http://www.w3.org/2000/svg" viewBox="0 0 255.12 255.12"><title>item_1</title><path d="M151.42,241.69c57.41-7.92,105-59.26,103.49-115.48S203.4,18.18,145.47,12.93C89.27,7.83,34.71,44.37,12.14,94,3.23,113.65-1.38,135.5,1.71,156.86c1.29,8.9,6,18.7,12.29,28,13.54,19.92,33.48,34.93,56.25,43.93C90.9,237,121.71,245.79,151.42,241.69Z" style="fill:#e1beca"/><path d="M188.43,218.91c-9.29,0-14.13-3.14-14.16-13.85s1-22.21-4.79-32.47c-3.23,8.51-3.44,12.27-.34,19.31,1.55,3.51,3.43,6.83.36,10.31-3.35,3.8-8.12,4.95-12.19,2.79-6.64-3.51-14.4-5.14-9.59-17.7,5.58-14.58,6.56-31.14-9.51-42.35a9.79,9.79,0,0,1-3.54-4.26c-7.74-21.7-28.41-24.82-46.09-32.21-4.44-1.86-5.91,2-7.4,4.68-4.49,8.12-8.31,16.63-13,24.61-6.77,11.46-6,22.79,2.68,31.91,7.34,7.67,7.84,17.82,12.89,26.16,2.51,4.16.35,8.09-5.26,8.32-6.39.25-13.64.74-16.44-6.43C55.36,180.64,48,164,38.54,148.19c-2.94-4.9-2.46-9.86,1.49-14.41,4.22-4.86,5-10.59,2.47-17-.92,10.73-8.68,19.11-7.76,31,1,12.45,1.7,25.37-2,37.67-1,3.33-.2,4.41,2.13,6.12,2.75,2,5.2,4.92,3.29,8.51-1.68,3.15-5.26,2-8.15,2-14.81-.65-15.34-4-16.1-14.51-1.31-17.93,1.05-36.14,2.17-54.22a10.38,10.38,0,0,1,3.33-6.87C32.73,116.1,31.21,101.74,30.5,87.59,28.87,55,55.31,33.74,87.46,36.14c20.19,1.51,38.84,12.17,59.89,8.32-1.34-5.79-6.4-4.56-9.77-5.17-6.54-1.17-12-3.77-16.41-8.66-3.11-3.47-5.5-7.46-2.85-12.11,2.53-4.44,7-5.4,11.68-4.37s9.26,2.77,14,3.83c6.64,1.49,12.83,1.71,19.07-2.77,8.71-6.26,18.1-3.66,26.17,1.61,6.35,4.14,11.37,5.84,19.18,2.6,6.8-2.81,16.48-6.37,21.46,3.69,2.51,5.08-9,17.9-17.39,17.22-13.93-1.14-14.11,6.34-15.27,16.6s-4,18.88,3.26,28.86c6.48,8.84,3,19.74-4.85,27.42-5.61,5.48-7.18,11.61-7.36,18.91-.53,21.59-.25,43.11,3.34,64.5C193.88,210.35,207.37,217,188.43,218.91ZM30.8,120.54c7.46-3,7.48-8.58,6.05-13.62-2.8-9.86,2.16-19.68-1-29.73C34.32,72.36,38.65,66,43.42,64.64c13.19-3.84,27.1-13.56,40.34-6.23C98,66.29,114,63.21,128,69.93c5.86,2.83,10.46-1.91,13.27-5.35,3-3.65,7.46-9.07,5.54-13.7-2.17-5.26-8.6-2-13.21-2.36-3.67-.3-7.88-.19-10.85-2-8.74-5.16-18.46-4-27.61-5.9C72.59,35.9,55.77,40,42.27,60.12,37,67.93,32.55,74.38,33.2,83.94,34,95.76,34.78,107.65,30.8,120.54ZM78.66,90c-6.13,9.22-13.7,15.11-23.93,17.82-5.5,1.45-16.06,34.19-12.87,39.28a186.24,186.24,0,0,1,16,32.9c1.77,4.67,4.62,8.68,10.54,8.15,2.42-.22,5.83.81,6.83-2.27,1.69-5.15-2.65-8.12-5.37-11.4-10.64-12.84-13-26-3.42-40.73,4.61-7.1,6.68-16.12,12.13-22.32C85.09,104,84.31,98.12,78.66,90Zm81,36.75c.19-5.68-18.93-30.79-24.44-32.29-3-.8-5.65-1.43-7,2.79-3.89,12.28-8.3,24.33,3.83,35,3.84,3.39,6.31,8.26,9.89,12,9.55,10,18.09,19.87,9.91,35.15-2.4,4.48,1.18,7.44,6,8.31,6.11,1.1,5.14-3.27,5.7-6.81.91-5.84,2-11.67,3.28-17.44,1-4.43,2-8.72-1-12.79C160.58,143.46,149.67,137.66,159.64,126.75Zm7.18-91.35c5.59,5.74,11.49,7.63,16.84-.61a2.35,2.35,0,0,1,3.85,0c7.19,9.5,16.47,2.57,24.41,2.32,6.74-.22,15.85-6.59,14-13-2.15-7.62-11.84-3.95-17.4-1.31-7.46,3.55-12.95,2.54-19.34-2.11-7.56-5.49-16.44-8.11-24.93-2.33-6.91,4.71-13.66,4.91-21.17,2.82-5-1.39-10.07-2.59-15.17-3.52-2.58-.48-5.3,0-6.81,2.66s.13,5.06,1.71,7.07c4.12,5.24,10.38,6.37,16.06,9,8.3,3.83,20.41-3.18,25.05,9.61C166.13,42.53,163.35,38.7,166.82,35.4Zm25,77.12c6.82-7.19,9.46-14.34,6.88-23.18-2-7-3.2-11-10.65-3.13-13.74,14.41-21.82,14.31-37.55,2.26-3.84-2.94-7.59-6.07-11.76-8.46-2.12-1.22-5.2-6.45-7.59-.32-1.59,4.1-5.09,9.09,3.11,11s13.2,7.88,17.23,14.87c3,5.15,6,10.27,9.21,15.28,1.52,2.38,2.33,6.4,5.89,5.9,4.47-.62,2.17-4.76,2.49-7.36.83-6.72,5-10.47,10.76-13C186,103.67,189.23,107.56,191.84,112.52ZM47.58,106.91c4.5-1.64,9.06-3.13,13.48-4.94,8-3.29,14.74-9.69,15.71-17.35.83-6.55-6.84-11.56-12.48-15.91-5.18-4-8.7-2.61-13.21,1.77C39.34,81.9,42.24,94.17,47.58,106.91Zm56-36.56c5.48,12.44.14,22-8.62,30.61-1.48,1.46-4.84,3-3.21,5.07,4.87,6.08,12.4,5.76,19.34,6.5,6.78.72,4.38-4.28,4.44-7.46.1-5.62,2.21-10,6.87-13.2,5.69-3.94,5.41-11,5.44-16.15,0-4.61-7.38-4.94-11.88-6.07C112.12,68.68,108,67.92,103.61,70.35Zm79-23.08c.87,7-3.69,13.22-.42,19.18,2.54,4.64.72,7.23-2.65,9.18s-7.29,2-10.33-1c-3.2-3.16-2.44-5.81.24-9.59,3.41-4.82,2.36-11.78-3.17-13.24C163,50.92,156,50.32,152.91,54.6c-2.9,4-.26,8.83,1.53,12.69,3.66,7.92,10.7,12.29,18.88,14.35,7.89,2,17.19-6.93,20-18.61C195.35,54.72,195.07,47.68,182.58,47.27ZM135.21,72.93c8.4,6.27,15.34,11.78,22.62,16.81,9.93,6.86,16.1,5.62,23.89-4.24-18.06-.42-27.62-7.56-33.7-26C146.08,66.4,141.27,69.7,135.21,72.93Zm-32.76,9c0-4.34-.41-7.52-2.93-9.3-3.23-2.26-5.42,1-7.51,2.69a35.64,35.64,0,0,0-7.72,7.84c-4,6.07,1,11.09,3,16.29.89,2.31,3.07,1.09,4.51-.15C97.53,94.32,101.66,88.42,102.45,81.9ZM62,62.57A85.23,85.23,0,0,1,80.68,81L95.55,67.68C85.61,59.58,75.15,58.16,62,62.57ZM185,125.11c-8.28,1.33-12.16,4.18-7.93,12.4,3.47,6.74,3.47,14.17,4,21.62,1,13.1,3.07,26.11,4.7,39.16C183.91,174.05,185.11,149.8,185,125.11ZM36.22,123.56c-5.62,3.67-9.63,8.54-9.27,15A134.53,134.53,0,0,1,24.18,176c-.77,3.39-1.27,8.81,3.52,8.93,3.92.1,3-5.1,3.29-8.27C32.46,159,27.61,140.73,36.22,123.56ZM169,130.72c3.28,10.82,6.69,21.52,5.21,33.17-1.5,11.83,4.11,22.73,5.31,34.22C178,175.33,181.29,151.86,169,130.72Zm-141.8-6.94c-8.16,3.93-8.42,11.77-8.31,19.49.15,11.11,1.35,22.19-2.69,33.06-1,2.79.18,6.55.81,9.78.29,1.49,2,2.14,3.6,1.66,2.09-.62.9-2.08,1-3.42C22.61,164.08,23,143.74,27.16,123.78ZM167.84,43.23c5.44,8.76,8,16.61,5.32,25.18-.45,1.45-3.15,2.46-.92,4.21a5.16,5.16,0,0,0,4,.74c2.38-.65,2.89-2.09,2.28-4.93-1.77-8.2.59-16.42,1.24-24.43Zm7.87,81.44c5.12-2.56,10.66-4.44,11.11-11.32.26-3.88-2.25-4.36-5-3.74-5.73,1.26-8.86,5.16-9.45,10.88C172.12,122.62,172.53,125.1,175.71,124.67ZM149.53,192.9c1.57,6.42,5.57,8.57,10.53,9.1,3.34.35,7.09.09,7.21-4.54s-3.11-5-6.84-4.62C157,193.14,153.48,192.9,149.53,192.9Zm-78.89-.23c-1.94.54-6.26-1.66-5.74,2.37.7,5.41,5.79,6.06,10.44,6.07,2.51,0,5.86.54,5.21-3.62C79.63,191.64,74.86,192.77,70.64,192.67Z" style="fill:#707070"/></svg>