<svg id="圖層_1" data-name="圖層 1" xmlns="http://www.w3.org/2000/svg" viewBox="0 0 255.12 255.12"><title>item_3</title><path d="M251.66,204.12c8.83-21.54-.29-54.2-10.74-75s-26.42-38.25-42.3-55.27C131.58,2,78.19,50.92,78.19,50.92a195.94,195.94,0,0,0-75,121.73C-.34,192.87.33,216.25,15,230.6c10.43,10.18,25.63,13.48,40.05,15.62a440.53,440.53,0,0,0,88.15,4.09S232.39,251.09,251.66,204.12Z" style="fill:#d5d4ea"/><path d="M62.86,156.19c-7.38,17.19,2.4,33.64,2.3,50.57-.06,10.92,4.3,13.77,15.21,12.51-3.1-15-10.26-29.92-.09-44.91-2.74,8.26-2.73,16.75-2.09,25.29.76,10.19,3.83,19.1,13.33,24.52-6.68-2.2-13.28-2.54-20,.6,8.26,8.8,16.34,8.3,19.68-.93,1.57,1.8,5.28,2.8,3.85,5.8-1.21,2.55-4.31,3.19-7.35,3.66-26.74,4.16-33.33.47-36.37-11.58l-.17.1c1.36-.21,3.64,4.82,4.1-1,.55-7-1.46-13.52-2-20.29l-.2.11c6,5.58,3.5,13,4.16,19.69.35,3.57,2.44,5.64,5.68,4.61,3.58-1.14.59-3.6.11-5.43-2.66-10.17-7-20.21-7.66-30.5-.83-12.29-3.38-25.5,5.06-36.78Z" style="fill:#707070"/><path d="M167.09,9.68C176.86,2.43,188,2,197.79,9.32c5.16,3.84,9.86,6.67,16.55,4.1,2.22-.85,5.09-.17,7.63.06,2.34.21,4.47,1.09,4.89,3.78.33,2.13-.89,3.73-2.63,4.74-2.76,1.61-5.57,4.14-8.47,4.31-9.73.56-11,7-12.13,14.62-1.77,11.51-1.24,21.82,3,33.46,10.36,28.44,7.84,56.61-10.27,82.15l-.52-.45c13.85-25.58,18.83-52.08,8.35-82.77-2.63,37.26-3.19,39.12-14.27,49.14,12-16.68,14.43-35,9.11-55l-3.37,3.92c.06-1.26-.37-2.9.26-3.72,5.87-7.71,2.91-8.19-4.87-7-8.13,1.24-16,0-19.49-9.28L177,54.06c1.08,1,2.1,2.17,3.79,1.18,2.8.88,5.63,4.38,8.49.61,2.48-3.27-1.82-4-2.84-6-1.13-2.19-3-4.27-.64-6.79,6.73,5.79,6.73,5.79,9.15,4.24,8.07-5.19,9.07-9.76,3.72-18.42-1.43-2.32-1.22-4.16.42-6,1.44-1.64,3.38-2.42,4.76-.28,3.87,6,8.37,2.65,12.57.93,3.05-1.25,8.46-2.3,7.31-5.94-1.3-4.09-6.86-2.92-10.24-1.76-4.32,1.49-8.55,2.11-11.74-.92-10.49-10-22.36-9.08-34.8-5.36Z" style="fill:#707070"/><path d="M186.17,245a3.34,3.34,0,0,0-.95,0c-6.21,2-13.31,6.38-18.61.83s-6-13.38-3.82-21.37c4.8-17.34,3.91-35,2.07-52.68l.44-.46c4.73,2.63,3.46,7.05,3.09,11-.53,5.81-.35,11.49,1.75,17.12,2-7.75,3.44-15.53,4.68-23.34.84-5.3-.2-9-6.8-9.77-5.51-.6-10.21-3.4-12.36-9.1,1.51,1.07,3,2.19,4.53,3.19,3.66,2.36,8.13,5.82,11.82,3.31s-2.49-6.41-1.38-10.16c2.28,1,2.9,3.2,3.87,5.12,1.32,2.63,1.23,6.35,6,5.7,4.6-.62,7.8-2.5,8.57-7.25.5-3.07.59-6.2.87-9.31,3,1.53,2.06,4.36,2.1,6.77.06,4,2.4,1.32,3.8,1.39l.52.45c-16,21.21-21.2,45.15-18.11,71.19.77,6.55,4.57,11.71,8.33,16.83ZM184.4,166c-3.89,1.57-7.8.72-7.42,5.78.83,11-2.87,21.46-5,32.07-1.2,6.07-.74,11.48,2.33,16.9C172.23,201.93,181.87,185.37,184.4,166Zm-16.76,46.3c-.85,7.25-3.88,13.61-3.36,20.7C174.6,230.55,174.6,230.55,167.64,212.27Zm12,32.71c-1-8.58-7.14-5.22-11.27-5.8-2.32-.33-2.51,1.55-1.61,3.12C169.72,247.6,174.41,245,179.59,245Z" style="fill:#707070"/><path d="M137.67,63.49c5.69,2.13,2.44,6.44,1.84,9.49a120.46,120.46,0,0,0,2,57.11c3,10.5,12.36,14.1,22.17,8.65,1.66-.93,3.16-2.28,5.29-1.81l-.17-.16c-.39,4.3-7.06,3.25-6.87,8.06-5.38,2.51-12.59,4.11-6.31,12.5-6.94-3.35-8.83,2-9.51,6.55-1.09,7.24,5,3.57,8,4,4,.56,8.44-.9,11.18,3.51l-.44.46c-3.05-.6-6.09-1.63-9.16-1.71-6.27-.17-11.28.66-10.72,9.51.27,4.29.45,10.25-5.09,13.07l.17.16a42.33,42.33,0,0,0,1.37-5.46c.93-7.85,4.52-15.65-4.62-22.25-4.83-3.49-4.09-10.28.59-15.23-.93,5.59-3.64,12.63,3.21,15.2,4.14,1.55,3.23-5.78,5.78-8.35,4.16-4.19,1.32-8.62-1.6-10.73-3.91-2.84-5.06,3-7.68,4.59-.4-5.48,6.51-8.23,3.77-15.57-6.52-17.52-7.74-36-5.07-54.69C136.6,74.81,139.61,69.38,137.67,63.49Z" style="fill:#707070"/><path d="M180.78,55.24c-1.69,1-2.71-.22-3.79-1.18-1.37-6.14-2.69-12.3-4.12-18.43-.59-2.55-1.81-5.54-4.77-4.67-2.59.77-7.91.56-5.55,6.27-3.3.12-8.07-3.43-8.74,3.38-1.14,11.68-3.22,23.25-2.93,35.09.26,10.77,3.12,20.13,11.78,27.11-9-1.56-11-9-12.74-16.13a70.14,70.14,0,0,1-1.84-23.39C143,79.2,146.81,94.09,153,108.72c-7.33-5.26-7.49-13.74-8.79-21.31-1.58-9.13-2-18.56,1.75-27.45,1.77-4.19.31-5.38-3.71-6.46-6.61-1.77-14.1-.49-19.83-5.45,6.88,1.12,13.91,1.68,20.59,3.53s9.23-.73,8.64-6.72c-.53-5.42,1.18-9.83,3.9-14.16l-.17.2c1.64-.73,5.86,2.46,4.52-2.74-.88-3.44.09-5.85,3.23-6.9,3.49-1.17,4.23,1.92,6.23,4C177.48,33.82,175.56,45.84,180.78,55.24Z" style="fill:#707070"/><path d="M49.85,51.92c-3.31,3.37-7.08,6.39-9.85,10.15-10.8,14.71-8.66,28.87,2.57,42.37l-4-.51,2.71,6.76c-5.76-1.09-4.71-7.82-9-10.93-1.57,7.8.06,14.77,2.25,21.73,5,15.85,10.4,31.63,7.36,48.76A17.54,17.54,0,0,0,43,178.67c5,14,6.1,28.65,8.16,43.15l.17-.1c-3.29-3.08-3-7.37-4.07-11.28-6.68-24.78-4.43-51-11.45-75.5-4.95-17.26-7.43-34.16-5.41-51.84C32,69.67,35.3,57.28,49.85,51.92Z" style="fill:#707070"/><path d="M139.89,192.71c-2.55,13.41-7.16,26.46-6.64,40.41.08,2-1.69,4-2.61,6-4.67.79-8.88-1.81-13.59-2.72,1.53,8.81,1.56,9,11.8,7.74,3.78-.45.28-3.73,1.46-5.35,3.29,1.51,4.3,4.88,2.13,6.81-3.72,3.28-8.93,1.34-13.22.72-3.8-.55-5-4.81-4.38-8.51a197.84,197.84,0,0,1,4.84-22.29c4.37-14.5,7.71-28.94,3-44l-.18.13c5.65,5.87,5.69,13.06,4.77,20.45-1.44,11.52-5.06,22.51-8.19,33.62-1.75,6.22,2.24,8.12,7,9.11,6.49,1.35,3.86-3.87,4.61-6.75,3.07-11.76.88-24.92,9.37-35.23Z" style="fill:#707070"/><path d="M85.92,168.85c3.67-7.31,2.18-13.79-2.9-19.9-1.55-1.86-3.4-3.89-2.92-6.76,3.09-9.49-4.23-15.82-7.13-23.49,7.89,4.8,9.22,13.17,11,21.06C88.5,159.3,92.7,163,112.87,164c5.22.24,9.52,1.26,9.68,7.69l.18-.13c-4-4.5-9-6.26-15-5.58-2.76.3-6.28.59-8.34-.79C93.06,161,89.44,164.14,85.92,168.85Z" style="fill:#707070"/><path d="M155.54,30.7c-7.48-.14-14.63-1.48-20.74-6.15-1.7-1.31-4-2.72-3.35-5.3.59-2.36,2.84-3.49,5.12-3.73a196.39,196.39,0,0,0,30.52-5.84l-.15-.17c-6.52,4.27-13,7.94-21.49,7-3.52-.38-10-1-10.48,3.69-.36,3.81,5.57,5.36,9.48,6.65,3.69,1.21,8.33-.21,10.92,4Z" style="fill:#707070"/><path d="M122.88,48.29c-12-.87-23.55-4.92-35.78-4.52-8.93.29-17.78.49-26.29,3.57C64.73,41.08,71.4,42.42,77.07,42,92.72,40.86,108.26,41.46,122.88,48.29Z" style="fill:#707070"/><path d="M62.86,156.19l-2.4-4c.52-4.72,5.28-10.38-2.56-13.24-9.44,20-9.7,40.66-4.79,61.65l.2-.11c-8.69-17-6.86-34.29-1.36-51.54,2.46-7.71,4.21-15-.88-22.25,1.65-.27,2.77,3.77,4.39,1a6.65,6.65,0,0,0-.63-7.89c-3.75-4.9-10-7.8-11.49-14.49,1.42,1.19,2.94,2.28,4.23,3.6,5.14,5.26,9.5,11.78,18.34,10.68-3.77.94-6.61,1.82-3.62,6.87,4.52,7.63,2.94,16.65,4.46,25C67.18,153.79,66.87,156.83,62.86,156.19Z" style="fill:#707070"/><path d="M97.51,78.21c-.29-5.88,5.2-7.59,8.13-11.12,2.26-2.74,5.2-5.42,3.55-9.25s-5.55-3.92-9.1-4C94,53.65,88,53.77,82,55.46c-19.46,5.52-25.78,21.09-18,44.89-11.24-11.89-6.22-35.61,9.42-44,10-5.41,21-5.49,31.81-4,7.18,1,9.37,6.86,4.93,12.75C106.48,69.91,101.75,73.88,97.51,78.21Z" style="fill:#707070"/><path d="M125.66,69.29C110.26,90.7,112,113.58,119.87,137c-1-.65-2.57-1.1-2.88-2-6.95-19.72-8.13-39.37,1.59-58.61C120.07,73.42,121.35,69.69,125.66,69.29Z" style="fill:#707070"/><path d="M97.65,139.92C85.26,126,83.5,99.58,93.77,81.78c-.44,7.65-4,14.57-4.43,22.39C88.71,117.05,92.42,128.58,97.65,139.92Z" style="fill:#707070"/><path d="M158.19,121.39c4-.25,5.23,3.29,6.8,5.65,3.73,5.58,8.2,6.76,14,3.9-4.84,4.16-3.59,7.1,1.72,9.54,2.44,1.12,5.35,1.74,6.68,4.55-7.37-.1-11.7-7.06-18.59-8.26l.17.16C167.34,130.41,160.72,127.32,158.19,121.39Z" style="fill:#707070"/></svg>