<svg id="圖層_1" data-name="圖層 1" xmlns="http://www.w3.org/2000/svg" viewBox="0 0 255.12 186.67"><title>sheep-2</title><path d="M64.27,103.71c-4.54-1.08-5-5.32-5.51-8.55-1.84-13.09-12.62-19.74-20-28.84-.57-.7-2.37-.5-3.6-.56-9.83-.43-14.69-7.68-11.1-16.87,1.31-3.34,3.38-6.31,3.05-10.25-.58-6.79-3.37-11.28-10.65-12.12A35.26,35.26,0,0,1,9.73,25c-2.08-.69-3.58-2.16-3.53-4.56S8.08,16.86,10,15.88a1.61,1.61,0,0,1,.73-.24c12.11.67,22.62-5.38,34-7.87,7.22-1.59,15.12-1.53,20.89,5.11,2.06,2.37,4.92.85,7.39,1.07,7.88.73,11.21,5.09,7.69,12C78.52,30,80.42,30.21,83,31.88c10,6.63,20.27,7.53,31.86,4.25,12.44-3.51,25.6-2.43,38.43-3.21,14-.85,28-.43,42-.42a50.88,50.88,0,0,1,31.44,11c-2.91.8-4.79-1.5-7.09-2.45-7-2.86-13.85-6.86-21.47-6.39-16.11,1-32.18.3-48.26.39-4.14,0-8.28.74-12.42,1.14-6,.58-2.88,4.9-3,7.67-.13,4.28,3,2.49,4.95,2.07,3.55-.75,7-1.8,10.55-2.72a58.09,58.09,0,0,1,24.75-.89c12.78,2.2,18.2,10.39,15.58,23-1.39,6.64-4.06,12.84-6.82,19-1.9,4.25-3.85,8.58-3.39,13.45.82,8.56,3.53,9.92,10.48,5.16,4.06-2.8,7.9-5.93,12-8.65,5.84-3.86,12.32-10.07,18.73-8.16,7.5,2.24,9.14-11.69,17.71-4.25,2.13,1.86,6.23-5.06,6.18-9.74-.06-6.52-3-12.08-7.14-16.89-3.6-4.23-7.73-8-11.63-12,12.19,6,19.88,15.52,20.64,29.35.46,8.54-3.86,11.93-12.27,10.48a3.8,3.8,0,0,0-4.67,4.36c2.38,8.73.65,18.77,7.82,26l-.74.73c-9.45-4.91-5.06-15.79-10.59-22.66,1.4,12.69,1.45,25.54,6.63,37.6l-.79.68c-5.21-4.64-4.68-11.18-5.71-17.2-.78-4.59-.63-9.44-4.05-13.42.52,8.47-10.1,16.63-.31,25.19l-.76.68-1.31-.77c-1.82-1.11-2.7-4.54-5.36-3.23-2,1-1.1,3.68-1,5.68.13,3.74-.35,7.19-4,9.31l-.72-.64c2.39-7.16,4.49-14.27,2.07-22-1.95-6.19,3.07-17.69,8.82-20.09,2.47-1,6.09-1.75,5-4.49-1.37-3.47-4.92-1-7.38-.2-9.53,3.2-16.72,10.31-25.19,15.22-6.57,3.8-7.61,7.17-2.94,12.74l-.76.65c-3.8-6.66-8.54-6.36-15.11-3.43-13.42,6-27.78,7.33-41.74,2.55-5.57-1.91-6.37,2.94-9.71,3.71,2.27-4.37,1.89-7.31-3.23-9.8s-8.86-7.11-12.2-11.82c-9-12.64-11.91-26.61-8.56-42-22,7.11-28.5,23.77-17.34,42.76A56.73,56.73,0,0,0,94,114.51c11.4,9.33,18.88,35.46,14.42,49.77-.56,1.79-3,3.88-.82,5.58s6.13,2.8,8.06,1.17c2.91-2.45,7.61-4.66,5.22-10.47-3.29-8-4-16.66-4.11-25.22,0-5.67-.91-12.14,5.75-15.53-6.29,12.28-3.66,24.74-.45,37.1,1.33,5.11,3.41,10-2.48,13.7a5.15,5.15,0,0,0-1.52,2.67c-2.2,6.83-8.55,10-15.34,7.83-3.61-1.15-3.92-3.89-2.19-6,10-12.26,7.12-25.63,3.8-39.72-2.62,3.43-4.32,7.38-3.73,10.7,1.68,9.4-3,17.07-5.42,25.37-.83,2.9-3,4.12-5.85,4.29-3.68.23-8.76,1.34-11.86-1.24-2.4-2-1-3.86.28-5.95,3.62-6.09,5.73-12.63,8.87-18.77,2.82-5.49,3.29-11.41,2.31-17.46-1.16-7.22-2-13.93-11.92-15.1a13.16,13.16,0,0,1-11.31-10.38c2.57,2.14,4.93,4.61,7.74,6.36,5.2,3.21,10.65,6.08,16.88,1.26C84.88,108.77,80.11,103,76.9,96.09,69.66,80.49,73.79,64.85,89.37,58c11.54-5.12,18.34-16.36,30.55-19.84C101,39.55,101,39.55,80.44,32.93c-8.36-2.68-20,4.86-20.71,13.73-.53,6.4-3.43,10.72-9.48,12.91-1.46.52-2.88,1.15-4.32,1.75-5.37,2.25-6.14,5.09-1.2,8.79A42.64,42.64,0,0,1,61,95C61.73,98,63.16,100.81,64.27,103.71Zm83.23,13.21c10.94.06,20.37-2.64,29.5-6.53,2.14-.91,5.25-1.43,3.15-5.38-3.77-7.08-2-14,1.08-20.91,2.87-6.38,5.67-12.77,7-19.74,2-10.91-1.41-16.62-12.28-19.5C165.26,42,154.76,43.32,144.59,47c-3.84,1.39-8.62-.09-11.61,3.35-9.53,10.95-14.36,23.27-10.35,38,1.29,4.74,2.63,9.48,3.75,14.28,2.74,11.74,3.63,12.61,15.79,14C144.23,116.87,146.32,116.86,147.5,116.92ZM26.38,49.81c6.24-.55,8-4.73,10.08-8,3.68-5.84,9.92-8.17,15-12,1.67-1.23,5-2,5.73,1.08.58,2.3-1.42,4.3-4,5a19.61,19.61,0,0,1-2.32.21c-8.19,1.15-11,8.5-5.51,15.81,3.47-6.09,10-9.46,13.19-15.29S65.9,28,72.19,28.24c5,.21,7.56-2.19,7.6-6.72,0-5-4.34-5-7.9-5.57-2.43-.4-4.71,1.55-7.39-.5C53.19,6.76,41.8,7,31.15,15.85a6.42,6.42,0,0,1-5.67,1.47,36.35,36.35,0,0,0-8.5-.57c-3.17.27-8-.34-8.21,3.84-.14,3.6,4.63,3.36,7.51,3.94,10.57,2.12,15.24,9.52,12.28,19.88C28.14,45.87,27.43,47.24,26.38,49.81Zm98.24,60.65c1.6-3.44-.37-6.54-1-9.7-1.22-6.09-3.08-12.06-4-18.18-1.54-10.17.31-19.51,7.58-27.47,1.35-1.48,5.77-7.26.32-6.1a210.09,210.09,0,0,0-25.64,6.93c-.83.29-1.21,2.17-1.61,3.38C94.44,76.86,107,103.25,124.62,110.46ZM89.88,122.88c.49,6,1.77,11.78,1.38,17.77-.41,6.15-3.53,11.3-5.46,16.89-2.21,6.41,3.29,4.46,7.33,6.76-2.61-10.48-.51-19.1,2.19-27.83C96.91,131.32,94.66,126.4,89.88,122.88Zm3.63-1.34c5.32,8.38,4.49,16,1.41,24.16-1.82,4.8-2.2,10.34.66,15.22,2.06-.42,2.67-1.71,2.65-2.93a109,109,0,0,1,3.21-25.9C102.57,127.2,100.07,123.3,93.51,121.54Zm10.72-70.22c6.35.52,11.18,0,15.74-2.19,2.16-1.05,3.24-2.37,1.75-4.87-1.13-1.91-2.07-3.49-4.67-2.11C112.77,44.42,108.28,46.35,104.23,51.32ZM57.39,42.16A46.13,46.13,0,0,0,43.72,58.94C55.63,56.14,57.39,53.93,57.39,42.16Zm-17.08-.67c-2.41,2-6.2,5.62-4.91,7,6.05,6.53-1,7.77-4.56,11.07C49,60.08,37.18,47.3,40.31,41.49ZM220.64,95.75c-5.21,5.42-9.54,11.11-6.12,19.84C220.05,109.51,218,101.9,220.64,95.75ZM108,179.55c2.31-1.06,7.2.75,7.29-3.1.08-3.41-4.54-3.12-7.54-3.39s-5.56,1-5.53,4C102.26,180.54,105.63,178.91,108,179.55ZM92,168.13c-4.9-.39-8.45-4-12.31-.18-1.13,1.12-1.83,2.9.13,3.87C84.14,173.93,87.84,172.69,92,168.13Z" style="fill:#707070"/><path d="M238,113.42c3.88,4.44,4,10,4.18,15.36.37,8.59.85,17.11,4.2,25.21.84,2,2.08,4.58-.22,6.44-3.85,3.13-5.41,4.69-3.85,6.25,1.56,3.12.67,3.17-1.13,4.72-4.72,4.08-10.43,1.9-15.61,1.22-3.42-.44-3.3-3.75-1.65-6.17,9.43-13.8,7.56-27-1.66-40a6.69,6.69,0,0,1-.58-1.43l.76-.68c8,7.28,9.9,16.73,9.28,28.06,3.81-8.21,3.21-15.4.79-22.63l.79-.68c5.9,9.41,3,18.9-.25,28.11-1.67,4.75-.05,6.08,4.09,6.51,4.61.49,8.59-5.11,6.78-10A61.92,61.92,0,0,1,240.41,134a66.65,66.65,0,0,0-3.2-19.81Zm-5.28,58.24c2.59-.63,6.92,1.19,6.85-3-.08-4.94-5.68-2.86-8.55-4.5-2.6-1.48-5.37,2-5.36,4.1C225.62,173.17,230.26,170.41,232.67,171.66Z" style="fill:#707070"/><path d="M209.93,136c-8.63,8.72-8.7,21.09-13.44,31.47-1.25,2.74-1.58,6-6.31,4.53-2.51-.75-3.27,1.19-3,4.3.38,4.37-3.56,5.17-7.09,5-4.15-.19-9.07,1.58-11.78-3.29-.69-1.26.18-3,2.06-3.41,1.53,4.18,10.49,6.85,13.39,3.89,1.93-2,.47-3.2-1.37-3.92-4.1-1.59-8.24-2.35-12.27.28,5.69-12.89,16.47-22.75,20.43-37,2.2-7.88,3.38-14.08-1.71-20.64l.76-.65c6.38,5.46,7.42,11.74,3.72,19.34-5.24,10.73-6.66,23.55-17.42,31.23-.44.31-.3,1.43-.43,2.16,14.62,3.94,20.82.41,22.68-13.38,1.1-8.14,4.46-15.28,11.06-20.56Z" style="fill:#707070"/></svg>