<svg id="圖層_1" data-name="圖層 1" xmlns="http://www.w3.org/2000/svg" viewBox="0 0 216.96 106.3"><title>logo_color</title><path d="M77.53,126.68A24.91,24.91,0,0,1,60,112.19c-4.34-9.58-1.31-17.91-2.16-28-.29-3.4-1.56-6.78-4-8.68-6.76-5.15-15.5,2.23-22.86,0-4.75-1.42-7.71-6.65-8.41-12.06-1.2-9.18,1.4-21,7.83-27.91C52.08,12.08,87.76,25.51,99.47,50.84c8.88,19.22,16.86,53.23-2.81,70.38A22.13,22.13,0,0,1,77.53,126.68Z" transform="translate(-19.08 -23.39)" style="fill:#fbddd1"/><path d="M99.16,79a8.83,8.83,0,0,1-6.47,5.41h-.06A13.42,13.42,0,0,1,87,84C81.61,82.6,76.85,79.1,75.19,73.83A14.7,14.7,0,0,1,80.81,58a15.81,15.81,0,0,1,9.32-2.51s8-.19,10,9.91A23.79,23.79,0,0,1,99.16,79Z" transform="translate(-19.08 -23.39)" style="fill:#fff"/><path d="M26.92,75.2a.18.18,0,0,1,0,.14,1.66,1.66,0,0,1-.22,1c-.22.31-.63.53-1.39.35a.6.6,0,0,1-.19-.08l-.66-.83a8.55,8.55,0,0,1-.65-.93l-.8-1.21a1.62,1.62,0,0,1-.1-.18l-.13-.24-.73-1.35c-.24-.45-.42-.93-.64-1.4-.44-.93-.72-1.92-1.07-2.9-.14-.49-.26-1-.4-1.5-.06-.25-.13-.5-.19-.75l-.14-.77a31,31,0,0,1-.57-6.25l0-1.58c0-.53.09-1.06.13-1.59l.07-.79c0-.26.08-.53.12-.79.08-.53.15-1.06.25-1.58a39.17,39.17,0,0,1,1.78-6.21c.2-.5.43-1,.64-1.5s.46-1,.71-1.49c.13-.24.25-.49.39-.73l.42-.72.42-.71.46-.69a33.56,33.56,0,0,1,4.26-5.12A38.16,38.16,0,0,1,34,30.57c.92-.65,1.9-1.21,2.87-1.79l1.51-.8c.5-.27,1-.48,1.54-.73A39.15,39.15,0,0,1,46.36,25a34.52,34.52,0,0,1,6.88-1.1,41.11,41.11,0,0,1,7,.17,39.74,39.74,0,0,1,7,1.37,21.34,21.34,0,0,1,6.64,3.06,11.24,11.24,0,0,1,2.73,2.77,7.42,7.42,0,0,1,.9,1.83,8.31,8.31,0,0,1,.39,2,7.49,7.49,0,0,1-.83,4A7.29,7.29,0,0,1,74.11,42a9.58,9.58,0,0,1-1.89.76,11.82,11.82,0,0,1-1.92.37c-.64.07-1.27.1-1.9.11H67.12c-.12,0-.23,0-.35,0a4.83,4.83,0,0,0-2.53,1.32,10.58,10.58,0,0,0-1.94,2.58,26.78,26.78,0,0,0-2.44,6.46,24.92,24.92,0,0,0,.26,13.75c1.33,4.46,4.34,8.37,6.64,12.86a29.21,29.21,0,0,1,1.56,3.51,21.07,21.07,0,0,1,1,3.79,66,66,0,0,1,.63,7.51c.1,2.49.15,5,.32,7.39q.12,1.83.36,3.63c.1.6.18,1.2.3,1.79l.17.88.21.86a24.26,24.26,0,0,0,2.87,6.49,24,24,0,0,0,4.59,5.44,15.86,15.86,0,0,0,6,3.38,10.89,10.89,0,0,0,6.68-.25,18,18,0,0,0,6-3.59,20.4,20.4,0,0,0,4.24-5.62,29.48,29.48,0,0,0,2.43-6.74,42.2,42.2,0,0,0,1-7.19,60.87,60.87,0,0,0-1-14.51,55.91,55.91,0,0,0-1.72-7,33.3,33.3,0,0,0-2.88-6.51,21.59,21.59,0,0,0-4.35-5.38,13.66,13.66,0,0,0-5.92-3,5.65,5.65,0,0,0-3,.12A4.39,4.39,0,0,0,84,66.9a5.75,5.75,0,0,0-.91,2.84,7.42,7.42,0,0,0,.08,1.56,11,11,0,0,0,.38,1.58,11.15,11.15,0,0,0,3.67,5.27A11.36,11.36,0,0,0,90,79.79a7.35,7.35,0,0,0,3,.62,5.15,5.15,0,0,0,1.43-.22,4.84,4.84,0,0,0,1.27-.62,3.86,3.86,0,0,0,1.49-2.25,8.71,8.71,0,0,0,.17-3.08A19.69,19.69,0,0,0,96.76,71C94.13,62.36,89.09,54.33,82,49.3a39.43,39.43,0,0,0-11.68-5.41c-2.07-.59-4.16-1.07-6.26-1.46l-.78-.15-.78-.1L61,42c-.51-.06-1-.07-1.55-.11a13.22,13.22,0,0,0-1.54-.06A30.8,30.8,0,0,0,36.1,50.31a27.17,27.17,0,0,0-3.64,4.41,17.85,17.85,0,0,0-2.39,5,20.5,20.5,0,0,0-.87,5.37,24.42,24.42,0,0,0,.5,5.34A26.84,26.84,0,0,0,40.9,87,49.57,49.57,0,0,0,49.68,91c1.5.59,3,1.19,4.43,1.82l.5.22,1,.44.84.4s.77.43,1.78,1.07a25.94,25.94,0,0,1,3.15,2.37,8.81,8.81,0,0,1,1.49,1.53c.24.33.24.48.09.5a8.52,8.52,0,0,1-2.34-1c.09.09-1.2-.66-2.58-1.3s-2.83-1.23-2.83-1.23l-.8-.37L54,95.24l-.24-.11-.13-.06-.5-.22-1-.43-2-.83a85.26,85.26,0,0,1-8.59-3.68c-.73-.4-1.45-.82-2.15-1.29a21.66,21.66,0,0,1-2-1.54,29.31,29.31,0,0,1-8.88-12.9,25.69,25.69,0,0,1-1.32-11.11,21.87,21.87,0,0,1,1.4-5.68,20.87,20.87,0,0,1,1.31-2.69,14.91,14.91,0,0,1,.8-1.26c.28-.4.55-.82.84-1.22l.93-1.17c.16-.2.31-.4.48-.58l.51-.55c.34-.37.68-.74,1-1.1l1.11-1,.56-.51.59-.47,1.2-1L39.11,45l.63-.43.66-.38,1.34-.78,1.39-.67.7-.34c.23-.11.48-.2.72-.3L46,41.53A33.21,33.21,0,0,1,52.09,40a35.6,35.6,0,0,1,6.37-.44l1.61.1.81.05c.26,0,.53.07.8.1,1.07.15,2.15.29,3.19.5a55,55,0,0,1,12.47,3.78,36.75,36.75,0,0,1,5.85,3.31,33.59,33.59,0,0,1,5.16,4.44,44,44,0,0,1,7.76,11.31c.5,1,1,2.09,1.4,3.17s.84,2.17,1.2,3.3a26.12,26.12,0,0,1,.83,3.49,13,13,0,0,1,.1,3.75A6.76,6.76,0,0,1,98,80.56a5.94,5.94,0,0,1-1.68,1.29,7.08,7.08,0,0,1-1.95.69,8.84,8.84,0,0,1-4-.21A13.87,13.87,0,0,1,87,80.73,13.65,13.65,0,0,1,82,75a12.83,12.83,0,0,1-1.07-3.72,8.87,8.87,0,0,1,.42-4,6.94,6.94,0,0,1,2.47-3.37,7.44,7.44,0,0,1,1.91-1c.34-.08.69-.18,1-.23a6.07,6.07,0,0,1,1-.08,10.83,10.83,0,0,1,3.91.74,16,16,0,0,1,3.4,1.79A17.75,17.75,0,0,1,98,67.65a24.59,24.59,0,0,1,2.37,2.94,32.51,32.51,0,0,1,3.46,6.64c.45,1.16.85,2.34,1.19,3.54s.62,2.39.89,3.6a66.63,66.63,0,0,1,1.18,7.31,56,56,0,0,1-.28,14.91,36.37,36.37,0,0,1-2,7.32,25.11,25.11,0,0,1-3.83,6.65,20.12,20.12,0,0,1-6,5,19,19,0,0,1-1.76.85l-.9.37-1,.32a13.43,13.43,0,0,1-4,.53A15.11,15.11,0,0,1,80,125.24a23.26,23.26,0,0,1-5.75-5.16,28.27,28.27,0,0,1-4-6.56A24.25,24.25,0,0,1,69,109.86a35.51,35.51,0,0,1-.69-3.74c-.66-5-.49-9.93-.87-14.71-.1-1.19-.23-2.38-.41-3.55a18.18,18.18,0,0,0-.85-3.32A38.53,38.53,0,0,0,63,78.21c-1.21-2.08-2.51-4.16-3.6-6.4a26.92,26.92,0,0,1-2.3-7.17,27.12,27.12,0,0,1-.22-7.49,27.9,27.9,0,0,1,.66-3.67c.28-1.19.63-2.37,1-3.54a27.09,27.09,0,0,1,1.48-3.43,14.49,14.49,0,0,1,2.2-3.16,7.63,7.63,0,0,1,3.5-2.18l.52-.11.54-.07c.35,0,.75,0,1,0,.56,0,1.11,0,1.66,0a9.32,9.32,0,0,0,3-.68,5.14,5.14,0,0,0,2.21-1.79,4.92,4.92,0,0,0,.85-2.67,5.52,5.52,0,0,0-.13-1.46,7,7,0,0,0-.19-.69A6.17,6.17,0,0,0,75,33a6.92,6.92,0,0,0-.83-1.22,9.21,9.21,0,0,0-1.1-1.06A13.51,13.51,0,0,0,70.37,29a20.66,20.66,0,0,0-3-1.2c-1-.34-2.12-.62-3.2-.86a38.6,38.6,0,0,0-13.06-.62A37,37,0,0,0,29,37.86a29.47,29.47,0,0,0-3.6,4.93c-.27.43-.48.88-.71,1.33a13.09,13.09,0,0,0-.63,1.37c-.43.91-.75,1.87-1.09,2.81A32.88,32.88,0,0,0,21.39,60c0,1,.16,1.93.25,2.88l.26,1.42c0,.23.08.47.13.7l.18.69a25.15,25.15,0,0,0,1.93,5.27l.79,1.46a.83.83,0,0,0,.09.16l.72,1.09a8.27,8.27,0,0,0,.59.83Z" transform="translate(-19.08 -23.39)" style="fill:#828282"/><path d="M168.86,127.25C154,121.31,146.73,105,143.79,81.79H130.06v29.58c3.93-.8,7.85-1.6,11.91-2.63,2.8-.68,4.9-.22,6,1.49,1.12,2.17.14,3.65-2.38,5a99.18,99.18,0,0,1-15.6,7,81.45,81.45,0,0,1-14.32,3.2c-3.08.46-6.75,1.15-7.55-2.82-.35-1.78-1.18-3.77-.91-5.6a3.36,3.36,0,0,1,2.51-2.53,22.93,22.93,0,0,0,3.1-.64v-80c0-4.22,2.94-6.62,8.12-6.62h51.12c5.19,0,8.13,2.4,8.13,6.62V52.09c0,4.34-2.94,6.62-8.13,6.62h-14.7c.14,5.26.28,10.17.7,14.62h20c3.22,0,5,1.6,5,4.23s-1.82,4.23-5,4.23H158.78c2.1,16.56,6.44,26.95,13.86,31.87,3.65,2.4,4.35-.69,4.35-13.25.14-2.63,1.54-3.89,4.06-3.89s3.92,1.14,4.48,3.89C190.71,124.39,184.27,133.65,168.86,127.25ZM131.45,50.83h32.36c1,0,1.68-.57,1.68-1.37V36.66a1.5,1.5,0,0,0-1.68-1.37H133.13a1.5,1.5,0,0,0-1.68,1.37Zm12.89,22.5c-.42-4.68-.56-9.48-.7-14.62H131.45V73.33Z" transform="translate(-19.08 -23.39)" style="fill:#e5b6aa"/><path d="M196.47,61.64a39.49,39.49,0,0,1-.67,11.49c-.47,2-1.77,2.7-3.53,2s-2.19-2-1.36-3.74a32.85,32.85,0,0,0,2.81-10c.16-.94.62-1.35,1.51-1.3S196.42,60.76,196.47,61.64Zm38.81-5V67c0,4.46-3.79,6.13-9.3,3.79-.15-.05-.31-.16-.46-.21v3.07c0,1.81-1.15,2.8-3.12,2.8s-3.12-1-3.12-2.8V57.23h-3.17a.6.6,0,0,0-.62.62V70.11c0,1.72-1,2.6-2.91,2.6s-2.86-.88-2.86-2.6V57.44a2.93,2.93,0,0,1-1.3,1c-1.56.57-2.65,0-3.06-1.71-.11-.52-.26-1-.37-1.51a43.11,43.11,0,0,1-10.85,3.43c-2,.42-3.28-.36-3.54-2.29s.73-3.11,2.7-3.11h.78a64.1,64.1,0,0,0,5.41-8.06,44,44,0,0,1-5,1.46c-1.92.36-3.28-.42-3.54-2.29s.52-3,2.65-2.85h.11a66.1,66.1,0,0,0,3.17-11.12c.41-2.24,1.71-3.12,3.79-2.65s2.7,2.18,1.77,4.31a49,49,0,0,1-5.25,9.51c1.4,0,2.86,0,4.21-.16a41.07,41.07,0,0,0,1.71-4.26c.73-1.92,2.18-2.65,4.16-1.82s2.28,2.45,1.14,4.47a56.24,56.24,0,0,1-9.92,13.3,50.12,50.12,0,0,0,5.71-.62c-.26-.78-.57-1.61-.83-2.34a1.35,1.35,0,0,1,.63-1.87,1.45,1.45,0,0,1,1.92.47,27.59,27.59,0,0,1,3.89,6.34.61.61,0,0,1,.11.31,2.7,2.7,0,0,1,2.86-1.77h6.54v-3h-5.14a2.71,2.71,0,0,1-3-3V37.28a2.69,2.69,0,0,1,3-3h4.26c.36-1.4.62-2.85.88-4.46.31-2,1.87-3,4-2.29s2.44,2.39,1.41,4.1a16,16,0,0,1-2.08,2.65h8.1a2.72,2.72,0,0,1,3,3V47.56a2.74,2.74,0,0,1-3,3h-5.19v3h6.75A2.71,2.71,0,0,1,235.28,56.6ZM203.54,70.06c.36,1.87-.36,3-2.18,3.22s-2.81-.62-2.81-2.44a65.93,65.93,0,0,0-.57-9.61,1.32,1.32,0,0,1,1-1.61,1.46,1.46,0,0,1,1.71,1A58.23,58.23,0,0,1,203.54,70.06Zm5.71-3.64c.63,1.56.21,2.76-1.35,3.33A2.12,2.12,0,0,1,204.79,68a45.06,45.06,0,0,0-2.39-7.94,1.29,1.29,0,0,1,.57-1.82c.67-.42,1.35-.16,1.87.57A33.34,33.34,0,0,1,209.25,66.42ZM217,40.6h10.75V38.42a.6.6,0,0,0-.62-.62h-9.51a.6.6,0,0,0-.62.62Zm.62,6.39h9.51a.6.6,0,0,0,.62-.62V44.08H217v2.29A.6.6,0,0,0,217.62,47Zm11.85,10.86a.6.6,0,0,0-.63-.62h-3.32V67.88a2.1,2.1,0,0,1,1.09-.21c2.44.21,2.86-.36,2.86-2Z" transform="translate(-19.08 -23.39)" style="fill:#edd8d0"/><path d="M236,113.58a1.93,1.93,0,0,1-2.08,2.13H216.24v10.75c0,2.08-1.24,3.22-3.48,3.22s-3.43-1.14-3.43-3.22V115.71H191.77a2.11,2.11,0,0,1,0-4.21h17.56v-6.24h-13a1.81,1.81,0,0,1-1.92-2,1.79,1.79,0,0,1,1.92-2h13V94.93H193.44a1.9,1.9,0,0,1-2-2.14,1.85,1.85,0,0,1,2-2.07h10.13a4.93,4.93,0,0,1-.83-1.25c-1.15-2.29-2.65-4.57-3.85-6.55a1.68,1.68,0,0,1,.21-2.33,1.8,1.8,0,0,1,2.34,0,33.38,33.38,0,0,1,6.39,5.35c1.61,1.76,1.56,3.48-.05,4.78h8.31a71.91,71.91,0,0,0,3.38-8.06,3.22,3.22,0,0,1,4.83-1.92c2.13,1,2.44,2.81.93,5a31.65,31.65,0,0,1-4.21,5H232.4a1.85,1.85,0,0,1,2,2.07,1.9,1.9,0,0,1-2,2.14H216.24v6.28h13.25a1.82,1.82,0,0,1,2,2,1.84,1.84,0,0,1-2,2H216.24v6.24H234A1.87,1.87,0,0,1,236,113.58Z" transform="translate(-19.08 -23.39)" style="fill:#edd8d0"/></svg>